<svg id="kity_svg_6" xmlns="http://www.w3.org/2000/svg" xmlns:xlink="http://www.w3.org/1999/xlink" version="1.1" width="1175" height="1910" style="background: rgb(251, 251, 251); visibility: visible;" viewBox="0 0 1175 1910"><defs id="kity_defs_7"><linearGradient id="kity_linearGradient_17" x1="0" y1="0" x2="0" y2="1"><stop id="kity_stop_18" offset="0" stop-color="rgb(255, 255, 255)"></stop><stop id="kity_stop_19" offset="1" stop-color="rgb(204, 204, 204)"></stop></linearGradient><marker id="kity_marker_2" orient="auto" refX="6" refY="0" viewBox="-7 -7 14 14" markerWidth="7" markerHeight="7" markerUnits="userSpaceOnUse"><path id="kity_path_3" fill="rgb(115, 161, 191)" stroke="none" d="M6,0A6,6,0,1,1,-6,0A6,6,0,1,1,6,0"></path></marker></defs><g id="kity_g_8"><g id="minder1" text-rendering="optimize-speed"><g id="minder_connect_group1"><path id="kity_path_39" fill="none" stroke="rgb(115, 161, 191)" stroke-width="1" d="M125,1181.5A222.5,474,0,0,1,347.5,707.5"></path><path id="kity_path_55" fill="none" stroke="rgb(115, 161, 191)" stroke-width="1" d="M515.5,707.5C535.5,707.5,535.5,92.5,555.5,92.5"></path><path id="kity_path_74" fill="none" stroke="rgb(115, 161, 191)" stroke-width="1" d="M125,1181.5A253.5,672,0,0,0,378.5,1853.5"></path><path id="kity_path_122" fill="none" stroke="rgb(115, 161, 191)" stroke-width="1" d="M125,1181.5A232.5,443,0,0,0,357.5,1624.5"></path><path id="kity_path_141" fill="none" stroke="rgb(115, 161, 191)" stroke-width="1" d="M515.5,707.5C535.5,707.5,535.5,549.5,555.5,549.5"></path><path id="kity_path_149" fill="none" stroke="rgb(115, 161, 191)" stroke-width="1" d="M683.5,92.5C703.5,92.5,703.5,31.5,723.5,31.5"></path><path id="kity_path_157" fill="none" stroke="rgb(115, 161, 191)" stroke-width="1" d="M683.5,92.5C703.5,92.5,703.5,92.5,723.5,92.5"></path><path id="kity_path_173" fill="none" stroke="rgb(115, 161, 191)" stroke-width="1" d="M683.5,92.5C703.5,92.5,703.5,153.5,723.5,153.5"></path><path id="kity_path_200" fill="none" stroke="rgb(115, 161, 191)" stroke-width="1" d="M793.5,374.5C813.5,374.5,813.5,361.5,833.5,361.5"></path><path id="kity_path_208" fill="none" stroke="rgb(115, 161, 191)" stroke-width="1" d="M793.5,374.5C813.5,374.5,813.5,309.5,833.5,309.5"></path><path id="kity_path_216" fill="none" stroke="rgb(115, 161, 191)" stroke-width="1" d="M683.5,549.5C703.5,549.5,703.5,595.5,723.5,595.5"></path><path id="kity_path_224" fill="none" stroke="rgb(115, 161, 191)" stroke-width="1" d="M821.5,595.5C841.5,595.5,841.5,569.5,861.5,569.5"></path><path id="kity_path_232" fill="none" stroke="rgb(115, 161, 191)" stroke-width="1" d="M515.5,707.5C535.5,707.5,535.5,1102.5,555.5,1102.5"></path><path id="kity_path_240" fill="none" stroke="rgb(115, 161, 191)" stroke-width="1" d="M793.5,374.5C813.5,374.5,813.5,413.5,833.5,413.5"></path><path id="kity_path_248" fill="none" stroke="rgb(115, 161, 191)" stroke-width="1" d="M515.5,707.5C536,707.5,536,1329.5,556.5,1329.5"></path><path id="kity_path_264" fill="none" stroke="rgb(115, 161, 191)" stroke-width="1" d="M695.5,1102.5C715.5,1102.5,715.5,959.5,735.5,959.5"></path><path id="kity_path_272" fill="none" stroke="rgb(115, 161, 191)" stroke-width="1" d="M903.5,881.5C923.5,881.5,923.5,829.5,943.5,829.5"></path><path id="kity_path_296" fill="none" stroke="rgb(115, 161, 191)" stroke-width="1" d="M805.5,959.5C825.5,959.5,825.5,1141.5,845.5,1141.5"></path><path id="kity_path_312" fill="none" stroke="rgb(115, 161, 191)" stroke-width="1" d="M805.5,959.5C825.5,959.5,825.5,881.5,845.5,881.5"></path><path id="kity_path_320" fill="none" stroke="rgb(115, 161, 191)" stroke-width="1" d="M805.5,959.5C825.5,959.5,825.5,777.5,845.5,777.5"></path><path id="kity_path_328" fill="none" stroke="rgb(115, 161, 191)" stroke-width="1" d="M903.5,881.5C923.5,881.5,923.5,881.5,943.5,881.5"></path><path id="kity_path_336" fill="none" stroke="rgb(115, 161, 191)" stroke-width="1" d="M903.5,881.5C923.5,881.5,923.5,933.5,943.5,933.5"></path><path id="kity_path_368" fill="none" stroke="rgb(115, 161, 191)" stroke-width="1" d="M821.5,595.5C841.5,595.5,841.5,621.5,861.5,621.5"></path><path id="kity_path_384" fill="none" stroke="rgb(115, 161, 191)" stroke-width="1" d="M907.5,621.5C927.5,621.5,927.5,621.5,947.5,621.5"></path><path id="kity_path_392" fill="none" stroke="rgb(115, 161, 191)" stroke-width="1" d="M805.5,959.5C825.5,959.5,825.5,985.5,845.5,985.5"></path><path id="kity_path_408" fill="none" stroke="rgb(115, 161, 191)" stroke-width="1" d="M805.5,959.5C825.5,959.5,825.5,1037.5,845.5,1037.5"></path><path id="kity_path_410" fill="none" stroke="rgb(115, 161, 191)" stroke-width="1" d="M978.5,1037.5C998.5,1037.5,998.5,1037.5,1018.5,1037.5"></path><path id="kity_path_424" fill="none" stroke="rgb(115, 161, 191)" stroke-width="1" d="M805.5,959.5C825.5,959.5,825.5,1089.5,845.5,1089.5"></path><path id="kity_path_432" fill="none" stroke="rgb(115, 161, 191)" stroke-width="1" d="M793.5,374.5C813.5,374.5,813.5,231.5,833.5,231.5"></path><path id="kity_path_464" fill="none" stroke="rgb(115, 161, 191)" stroke-width="1" d="M793.5,374.5C813.5,374.5,813.5,465.5,833.5,465.5"></path><path id="kity_path_472" fill="none" stroke="rgb(115, 161, 191)" stroke-width="1" d="M683.5,549.5C703.5,549.5,703.5,374.5,723.5,374.5"></path><path id="kity_path_479" fill="none" stroke="rgb(115, 161, 191)" stroke-width="1" d="M915.5,231.5C935.5,231.5,935.5,205.5,955.5,205.5"></path><path id="kity_path_480" fill="none" stroke="rgb(115, 161, 191)" stroke-width="1" d="M915.5,231.5C935.5,231.5,935.5,257.5,955.5,257.5"></path><path id="kity_path_482" fill="none" stroke="rgb(115, 161, 191)" stroke-width="1" d="M683.5,549.5C703.5,549.5,703.5,673.5,723.5,673.5"></path><path id="kity_path_498" fill="none" stroke="rgb(115, 161, 191)" stroke-width="1" d="M683.5,549.5C703.5,549.5,703.5,725.5,723.5,725.5"></path><path id="kity_path_506" fill="none" stroke="rgb(115, 161, 191)" stroke-width="1" d="M793.5,374.5C813.5,374.5,813.5,517.5,833.5,517.5"></path><path id="kity_path_513" fill="none" stroke="rgb(115, 161, 191)" stroke-width="1" d="M902.5,1141.5C922.5,1141.5,922.5,1141.5,942.5,1141.5"></path><path id="kity_path_515" fill="none" stroke="rgb(115, 161, 191)" stroke-width="1" d="M695.5,1102.5C715.5,1102.5,715.5,1193.5,735.5,1193.5"></path><path id="kity_path_531" fill="none" stroke="rgb(115, 161, 191)" stroke-width="1" d="M695.5,1102.5C715.5,1102.5,715.5,1245.5,735.5,1245.5"></path><path id="kity_path_538" fill="none" stroke="rgb(115, 161, 191)" stroke-width="1" d="M662.5,1329.5C682.5,1329.5,682.5,1303.5,702.5,1303.5"></path><path id="kity_path_540" fill="none" stroke="rgb(115, 161, 191)" stroke-width="1" d="M662.5,1329.5C682.5,1329.5,682.5,1355.5,702.5,1355.5"></path><path id="kity_path_604" fill="none" stroke="rgb(115, 161, 191)" stroke-width="1" d="M476.5,1853.5C496.5,1853.5,496.5,1827.5,516.5,1827.5"></path><path id="kity_path_613" fill="none" stroke="rgb(115, 161, 191)" stroke-width="1" d="M598.5,1494.5C618.5,1494.5,618.5,1494.5,638.5,1494.5"></path><path id="kity_path_614" fill="none" stroke="rgb(115, 161, 191)" stroke-width="1" d="M457.5,1624.5C477.5,1624.5,477.5,1494.5,497.5,1494.5"></path><path id="kity_path_615" fill="none" stroke="rgb(115, 161, 191)" stroke-width="1" d="M763.5,1598.5C783.5,1598.5,783.5,1546.5,803.5,1546.5"></path><path id="kity_path_616" fill="none" stroke="rgb(115, 161, 191)" stroke-width="1" d="M763.5,1598.5C783.5,1598.5,783.5,1598.5,803.5,1598.5"></path><path id="kity_path_617" fill="none" stroke="rgb(115, 161, 191)" stroke-width="1" d="M763.5,1598.5C783.5,1598.5,783.5,1650.5,803.5,1650.5"></path><path id="kity_path_618" fill="none" stroke="rgb(115, 161, 191)" stroke-width="1" d="M582.5,1650.5C602.5,1650.5,602.5,1598.5,622.5,1598.5"></path><path id="kity_path_619" fill="none" stroke="rgb(115, 161, 191)" stroke-width="1" d="M582.5,1650.5C602.5,1650.5,602.5,1702.5,622.5,1702.5"></path><path id="kity_path_620" fill="none" stroke="rgb(115, 161, 191)" stroke-width="1" d="M457.5,1624.5C477.5,1624.5,477.5,1650.5,497.5,1650.5"></path><path id="kity_path_621" fill="none" stroke="rgb(115, 161, 191)" stroke-width="1" d="M589.5,1754.5C609.5,1754.5,609.5,1754.5,629.5,1754.5"></path><path id="kity_path_622" fill="none" stroke="rgb(115, 161, 191)" stroke-width="1" d="M457.5,1624.5C477.5,1624.5,477.5,1754.5,497.5,1754.5"></path><path id="kity_path_624" fill="none" stroke="rgb(115, 161, 191)" stroke-width="1" d="M476.5,1853.5C496.5,1853.5,496.5,1879.5,516.5,1879.5"></path></g><g id="minder_node1"><path id="node_outline1" fill="rgb(115, 161, 191)" stroke="rgb(115, 161, 191)" d="M25.5,1161.5h199a5,5,0,0,1,5,5v30a5,5,0,0,1,-5,5h-199a5,5,0,0,1,-5,-5v-30a5,5,0,0,1,5,-5z" stroke-width="3"></path><g id="node_text1" fill="white"><text id="kity_text_22" text-rendering="inherit" font-size="16" dy=".8em" y="1171.0999999046326" x="44.5">2019-12-22-我所渴求</text></g></g><g id="kity_g_14" display="none"><path id="kity_path_15" fill="rgba(0, 92, 153, 0.5)" stroke="none" d="M623.5,1594.5h141v15h-141z"></path><path id="kity_path_16" fill="none" stroke="rgb(0, 76, 128)" d="M623.5,1594.5L764.5,1594.5" stroke-width="1"></path></g><g id="minder_node3"><g id="node_expander2" style="cursor: pointer;"><path id="kity_path_44" fill="white" stroke="gray" d="M348.5,707.5A6,6,0,1,1,336.5,707.5A6,6,0,1,1,348.5,707.5"></path><path id="kity_path_45" fill="none" stroke="gray" d="M338,707.5L347,707.5"></path></g><path id="node_outline3" fill="rgb(238, 243, 246)" stroke="rgb(57, 80, 96)" d="M352.5,694.5h160a3,3,0,0,1,3,3v20a3,3,0,0,1,-3,3h-160a3,3,0,0,1,-3,-3v-20a3,3,0,0,1,3,-3z" stroke-width="3"></path><g id="node_text3" fill="black"><text id="kity_text_41" text-rendering="inherit" font-size="14" dy=".8em" y="698.4000000953674" x="369.5">专业的软件开发能力</text></g></g><g id="minder_node5"><g id="node_expander4" style="cursor: pointer;"><path id="kity_path_60" fill="white" stroke="gray" d="M555.5,92.5A6,6,0,1,1,543.5,92.5A6,6,0,1,1,555.5,92.5"></path><path id="kity_path_61" fill="none" stroke="gray" d="M545,92.5L554,92.5"></path></g><path id="node_outline5" fill="none" stroke="none" d="M560.5,81.5h118a5,5,0,0,1,5,5v12a5,5,0,0,1,-5,5h-118a5,5,0,0,1,-5,-5v-12a5,5,0,0,1,5,-5z" stroke-width="3"></path><g id="node_text5" fill="black"><text id="kity_text_57" text-rendering="inherit" font-size="12" dy=".8em" y="84.70000004768372" x="565.5">专业的软件设计能力</text></g></g><g id="minder_node7" opacity="1"><g id="node_expander6" style="cursor: pointer;"><path id="kity_path_79" fill="white" stroke="gray" d="M379.5,1853.5A6,6,0,1,1,367.5,1853.5A6,6,0,1,1,379.5,1853.5"></path><path id="kity_path_80" fill="none" stroke="gray" d="M369,1853.5L378,1853.5"></path></g><path id="node_outline7" fill="rgb(238, 243, 246)" stroke="rgb(115, 161, 191)" d="M383.5,1840.5h90a3,3,0,0,1,3,3v20a3,3,0,0,1,-3,3h-90a3,3,0,0,1,-3,-3v-20a3,3,0,0,1,3,-3z" stroke-width="1"></path><g id="node_text7" fill="black"><text id="kity_text_76" text-rendering="inherit" font-size="14" dy=".8em" y="1844.4000000953674" x="400.5">家庭幸福</text></g></g><g id="minder_node13" opacity="1"><g id="node_expander12" style="cursor: pointer;"><path id="kity_path_127" fill="white" stroke="gray" d="M358.5,1624.5A6,6,0,1,1,346.5,1624.5A6,6,0,1,1,358.5,1624.5"></path><path id="kity_path_128" fill="none" stroke="gray" d="M348,1624.5L357,1624.5"></path></g><path id="node_outline13" fill="rgb(238, 243, 246)" stroke="rgb(115, 161, 191)" d="M362.5,1611.5h92a3,3,0,0,1,3,3v20a3,3,0,0,1,-3,3h-92a3,3,0,0,1,-3,-3v-20a3,3,0,0,1,3,-3z" stroke-width="1"></path><g id="node_text13" fill="black"><text id="kity_text_124" text-rendering="inherit" font-size="14" dy=".8em" y="1615.4000000953674" x="379.5">个人素养</text></g></g><g id="minder_node15"><g id="node_expander14" style="cursor: pointer;"><path id="kity_path_146" fill="white" stroke="gray" d="M555.5,549.5A6,6,0,1,1,543.5,549.5A6,6,0,1,1,555.5,549.5"></path><path id="kity_path_147" fill="none" stroke="gray" d="M545,549.5L554,549.5"></path></g><path id="node_outline15" fill="none" stroke="none" d="M560.5,529.5h118a5,5,0,0,1,5,5v30a5,5,0,0,1,-5,5h-118a5,5,0,0,1,-5,-5v-30a5,5,0,0,1,5,-5z" stroke-width="3"></path><g id="node_text15" fill="black"><text id="kity_text_143" text-rendering="inherit" font-size="12" dy=".8em" y="532.7000000476837" x="565.5">专业的后端开发能力</text><text id="kity_text_198" text-rendering="inherit" font-size="12" dy=".8em" y="550.7000000476837" x="565.5">（后端体系知识）</text></g></g><g id="minder_node16"><g id="node_expander15" style="cursor: pointer;" display="none"><path id="kity_path_154" fill="white" stroke="gray" d="M723.5,31.5A6,6,0,1,1,711.5,31.5A6,6,0,1,1,723.5,31.5"></path><path id="kity_path_155" fill="none" stroke="gray"></path></g><path id="node_outline16" fill="none" stroke="none" d="M728.5,20.5h95a5,5,0,0,1,5,5v12a5,5,0,0,1,-5,5h-95a5,5,0,0,1,-5,-5v-12a5,5,0,0,1,5,-5z" stroke-width="3"></path><g id="node_text16" fill="black"><text id="kity_text_151" text-rendering="inherit" font-size="12" dy=".8em" y="23.700000047683716" x="733.5">专业的需求分析</text></g></g><g id="minder_node17"><g id="node_expander16" style="cursor: pointer;" display="none"><path id="kity_path_162" fill="white" stroke="gray" d="M723.5,92.5A6,6,0,1,1,711.5,92.5A6,6,0,1,1,723.5,92.5"></path><path id="kity_path_163" fill="none" stroke="gray" d="M713,92.5L722,92.5"></path></g><path id="node_outline17" fill="none" stroke="none" d="M728.5,72.5h178a5,5,0,0,1,5,5v30a5,5,0,0,1,-5,5h-178a5,5,0,0,1,-5,-5v-30a5,5,0,0,1,5,-5z" stroke-width="3"></path><g id="node_text17" fill="black"><text id="kity_text_159" text-rendering="inherit" font-size="12" dy=".8em" y="75.70000004768372" x="733.5">专业的概要设计和详细设计</text><text id="kity_text_189" text-rendering="inherit" font-size="12" dy=".8em" y="93.70000004768372" x="733.5">（包括软件架构和数据库设计）</text></g></g><g id="minder_node19"><g id="node_expander18" style="cursor: pointer;" display="none"><path id="kity_path_178" fill="white" stroke="gray" d="M723.5,153.5A6,6,0,1,1,711.5,153.5A6,6,0,1,1,723.5,153.5"></path><path id="kity_path_179" fill="none" stroke="gray"></path></g><path id="node_outline19" fill="none" stroke="none" d="M728.5,142.5h143a5,5,0,0,1,5,5v12a5,5,0,0,1,-5,5h-143a5,5,0,0,1,-5,-5v-12a5,5,0,0,1,5,-5z" stroke-width="3"></path><g id="node_text19" fill="black"><text id="kity_text_175" text-rendering="inherit" font-size="12" dy=".8em" y="145.70000004768372" x="733.5">专业的交互用户界面设计</text></g></g><g id="minder_node22" opacity="1"><g id="node_expander21" style="cursor: pointer;" display="none"><path id="kity_path_205" fill="white" stroke="gray" d="M833.5,361.5A6,6,0,1,1,821.5,361.5A6,6,0,1,1,833.5,361.5"></path><path id="kity_path_206" fill="none" stroke="gray"></path></g><path id="node_outline22" fill="none" stroke="none" d="M838.5,350.5h59a5,5,0,0,1,5,5v12a5,5,0,0,1,-5,5h-59a5,5,0,0,1,-5,-5v-12a5,5,0,0,1,5,-5z" stroke-width="3"></path><g id="node_text22" fill="black"><text id="kity_text_202" text-rendering="inherit" font-size="12" dy=".8em" y="353.7000000476837" x="843.5">缓存管理</text></g></g><g id="minder_node23" opacity="1"><g id="node_expander22" style="cursor: pointer;" display="none"><path id="kity_path_213" fill="white" stroke="gray" d="M833.5,309.5A6,6,0,1,1,821.5,309.5A6,6,0,1,1,833.5,309.5"></path><path id="kity_path_214" fill="none" stroke="gray"></path></g><path id="node_outline23" fill="none" stroke="none" d="M838.5,298.5h60a5,5,0,0,1,5,5v12a5,5,0,0,1,-5,5h-60a5,5,0,0,1,-5,-5v-12a5,5,0,0,1,5,-5z" stroke-width="3"></path><g id="node_text23" fill="black"><text id="kity_text_210" text-rendering="inherit" font-size="12" dy=".8em" y="301.7000000476837" x="843.5">权限管理</text></g></g><g id="minder_node24"><g id="node_expander23" style="cursor: pointer;"><path id="kity_path_221" fill="white" stroke="gray" d="M723.5,595.5A6,6,0,1,1,711.5,595.5A6,6,0,1,1,723.5,595.5"></path><path id="kity_path_222" fill="none" stroke="gray" d="M713,595.5L722,595.5"></path></g><path id="node_outline24" fill="none" stroke="none" d="M728.5,584.5h88a5,5,0,0,1,5,5v12a5,5,0,0,1,-5,5h-88a5,5,0,0,1,-5,-5v-12a5,5,0,0,1,5,-5z" stroke-width="3"></path><g id="node_text24" fill="black"><text id="kity_text_218" text-rendering="inherit" font-size="12" dy=".8em" y="587.7000000476837" x="733.5">主力语言node</text></g></g><g id="minder_node25"><g id="node_expander24" style="cursor: pointer;" display="none"><path id="kity_path_229" fill="white" stroke="gray" d="M861.5,569.5A6,6,0,1,1,849.5,569.5A6,6,0,1,1,861.5,569.5"></path><path id="kity_path_230" fill="none" stroke="gray"></path></g><path id="node_outline25" fill="none" stroke="none" d="M866.5,558.5h59a5,5,0,0,1,5,5v12a5,5,0,0,1,-5,5h-59a5,5,0,0,1,-5,-5v-12a5,5,0,0,1,5,-5z" stroke-width="3"></path><g id="node_text25" fill="black"><text id="kity_text_226" text-rendering="inherit" font-size="12" dy=".8em" y="561.7000000476837" x="871.5">基础模块</text></g></g><g id="minder_node26"><g id="node_expander25" style="cursor: pointer;"><path id="kity_path_237" fill="white" stroke="gray" d="M555.5,1102.5A6,6,0,1,1,543.5,1102.5A6,6,0,1,1,555.5,1102.5"></path><path id="kity_path_238" fill="none" stroke="gray" d="M545,1102.5L554,1102.5"></path></g><path id="node_outline26" fill="none" stroke="none" d="M560.5,1091.5h130a5,5,0,0,1,5,5v12a5,5,0,0,1,-5,5h-130a5,5,0,0,1,-5,-5v-12a5,5,0,0,1,5,-5z" stroke-width="3"></path><g id="node_text26" fill="black"><text id="kity_text_234" text-rendering="inherit" font-size="12" dy=".8em" y="1094.7000000476837" x="565.5">专业的客户端开发能力</text></g></g><g id="minder_node27" opacity="1"><g id="node_expander26" style="cursor: pointer;" display="none"><path id="kity_path_245" fill="white" stroke="gray" d="M833.5,413.5A6,6,0,1,1,821.5,413.5A6,6,0,1,1,833.5,413.5"></path><path id="kity_path_246" fill="none" stroke="gray"></path></g><path id="node_outline27" fill="none" stroke="none" d="M838.5,402.5h59a5,5,0,0,1,5,5v12a5,5,0,0,1,-5,5h-59a5,5,0,0,1,-5,-5v-12a5,5,0,0,1,5,-5z" stroke-width="3"></path><g id="node_text27" fill="black"><text id="kity_text_242" text-rendering="inherit" font-size="12" dy=".8em" y="405.7000000476837" x="843.5">日志管理</text></g></g><g id="minder_node28" opacity="1"><g id="node_expander27" style="cursor: pointer;"><path id="kity_path_253" fill="white" stroke="gray" d="M556.5,1329.5A6,6,0,1,1,544.5,1329.5A6,6,0,1,1,556.5,1329.5"></path><path id="kity_path_254" fill="none" stroke="gray" d="M546,1329.5L555,1329.5"></path></g><path id="node_outline28" fill="none" stroke="none" d="M561.5,1318.5h96a5,5,0,0,1,5,5v12a5,5,0,0,1,-5,5h-96a5,5,0,0,1,-5,-5v-12a5,5,0,0,1,5,-5z" stroke-width="3"></path><g id="node_text28" fill="black"><text id="kity_text_250" text-rendering="inherit" font-size="12" dy=".8em" y="1321.7000000476837" x="566.5">通用技能和思想</text></g></g><g id="minder_node30"><g id="node_expander29" style="cursor: pointer;"><path id="kity_path_269" fill="white" stroke="gray" d="M735.5,959.5A6,6,0,1,1,723.5,959.5A6,6,0,1,1,735.5,959.5"></path><path id="kity_path_270" fill="none" stroke="gray" d="M725,959.5L734,959.5"></path></g><path id="node_outline30" fill="none" stroke="none" d="M740.5,948.5h60a5,5,0,0,1,5,5v12a5,5,0,0,1,-5,5h-60a5,5,0,0,1,-5,-5v-12a5,5,0,0,1,5,-5z" stroke-width="3"></path><g id="node_text30" fill="black"><text id="kity_text_266" text-rendering="inherit" font-size="12" dy=".8em" y="951.7000000476837" x="745.5">web前端</text></g></g><g id="minder_node31" opacity="1"><g id="node_expander30" style="cursor: pointer;" display="none"><path id="kity_path_277" fill="white" stroke="gray" d="M943.5,829.5A6,6,0,1,1,931.5,829.5A6,6,0,1,1,943.5,829.5"></path><path id="kity_path_278" fill="none" stroke="gray"></path></g><path id="node_outline31" fill="none" stroke="none" d="M948.5,818.5h48a5,5,0,0,1,5,5v12a5,5,0,0,1,-5,5h-48a5,5,0,0,1,-5,-5v-12a5,5,0,0,1,5,-5z" stroke-width="3"></path><g id="node_text31" fill="black"><text id="kity_text_274" text-rendering="inherit" font-size="12" dy=".8em" y="821.7000000476837" x="953.5">小程序</text></g></g><g id="minder_node34" opacity="1"><g id="node_expander33" style="cursor: pointer;"><path id="kity_path_301" fill="white" stroke="gray" d="M845.5,1141.5A6,6,0,1,1,833.5,1141.5A6,6,0,1,1,845.5,1141.5"></path><path id="kity_path_302" fill="none" stroke="gray" d="M835,1141.5L844,1141.5"></path></g><path id="node_outline34" fill="none" stroke="none" d="M850.5,1130.5h47a5,5,0,0,1,5,5v12a5,5,0,0,1,-5,5h-47a5,5,0,0,1,-5,-5v-12a5,5,0,0,1,5,-5z" stroke-width="3"></path><g id="node_text34" fill="black"><text id="kity_text_298" text-rendering="inherit" font-size="12" dy=".8em" y="1133.7000000476837" x="855.5">工程化</text></g></g><g id="minder_node36" opacity="1"><g id="node_expander35" style="cursor: pointer;"><path id="kity_path_317" fill="white" stroke="gray" d="M845.5,881.5A6,6,0,1,1,833.5,881.5A6,6,0,1,1,845.5,881.5"></path><path id="kity_path_318" fill="none" stroke="gray" d="M835,881.5L844,881.5"></path></g><path id="node_outline36" fill="none" stroke="none" d="M850.5,870.5h48a5,5,0,0,1,5,5v12a5,5,0,0,1,-5,5h-48a5,5,0,0,1,-5,-5v-12a5,5,0,0,1,5,-5z" stroke-width="3"></path><g id="node_text36" fill="black"><text id="kity_text_314" text-rendering="inherit" font-size="12" dy=".8em" y="873.7000000476837" x="855.5">移动端</text></g></g><g id="minder_node37"><g id="node_expander36" style="cursor: pointer;" display="none"><path id="kity_path_325" fill="white" stroke="gray" d="M845.5,777.5A6,6,0,1,1,833.5,777.5A6,6,0,1,1,845.5,777.5"></path><path id="kity_path_326" fill="none" stroke="gray"></path></g><path id="node_outline37" fill="none" stroke="none" d="M850.5,766.5h37a5,5,0,0,1,5,5v12a5,5,0,0,1,-5,5h-37a5,5,0,0,1,-5,-5v-12a5,5,0,0,1,5,-5z" stroke-width="3"></path><g id="node_text37" fill="black"><text id="kity_text_322" text-rendering="inherit" font-size="12" dy=".8em" y="769.7000000476837" x="855.5">pc端</text></g></g><g id="minder_node38"><g id="node_expander37" style="cursor: pointer;" display="none"><path id="kity_path_333" fill="white" stroke="gray" d="M943.5,881.5A6,6,0,1,1,931.5,881.5A6,6,0,1,1,943.5,881.5"></path><path id="kity_path_334" fill="none" stroke="gray"></path></g><path id="node_outline38" fill="none" stroke="none" d="M948.5,870.5h61a5,5,0,0,1,5,5v12a5,5,0,0,1,-5,5h-61a5,5,0,0,1,-5,-5v-12a5,5,0,0,1,5,-5z" stroke-width="3"></path><g id="node_text38" fill="black"><text id="kity_text_330" text-rendering="inherit" font-size="12" dy=".8em" y="873.7000000476837" x="953.5">web app</text></g></g><g id="minder_node39"><g id="node_expander38" style="cursor: pointer;" display="none"><path id="kity_path_341" fill="white" stroke="gray" d="M943.5,933.5A6,6,0,1,1,931.5,933.5A6,6,0,1,1,943.5,933.5"></path><path id="kity_path_342" fill="none" stroke="gray"></path></g><path id="node_outline39" fill="none" stroke="none" d="M948.5,922.5h130a5,5,0,0,1,5,5v12a5,5,0,0,1,-5,5h-130a5,5,0,0,1,-5,-5v-12a5,5,0,0,1,5,-5z" stroke-width="3"></path><g id="node_text39" fill="black"><text id="kity_text_338" text-rendering="inherit" font-size="12" dy=".8em" y="925.7000000476837" x="953.5">原生开发 react native</text></g></g><g id="minder_node43"><g id="node_expander42" style="cursor: pointer;"><path id="kity_path_373" fill="white" stroke="gray" d="M861.5,621.5A6,6,0,1,1,849.5,621.5A6,6,0,1,1,861.5,621.5"></path><path id="kity_path_374" fill="none" stroke="gray" d="M851,621.5L860,621.5"></path></g><path id="node_outline43" fill="none" stroke="none" d="M866.5,610.5h36a5,5,0,0,1,5,5v12a5,5,0,0,1,-5,5h-36a5,5,0,0,1,-5,-5v-12a5,5,0,0,1,5,-5z" stroke-width="3"></path><g id="node_text43" fill="black"><text id="kity_text_370" text-rendering="inherit" font-size="12" dy=".8em" y="613.7000000476837" x="871.5">框架</text></g></g><g id="minder_node45"><g id="node_expander44" style="cursor: pointer;" display="none"><path id="kity_path_389" fill="white" stroke="gray" d="M947.5,621.5A6,6,0,1,1,935.5,621.5A6,6,0,1,1,947.5,621.5"></path><path id="kity_path_390" fill="none" stroke="gray"></path></g><path id="node_outline45" fill="none" stroke="none" d="M952.5,610.5h51a5,5,0,0,1,5,5v12a5,5,0,0,1,-5,5h-51a5,5,0,0,1,-5,-5v-12a5,5,0,0,1,5,-5z" stroke-width="3"></path><g id="node_text45" fill="black"><text id="kity_text_386" text-rendering="inherit" font-size="12" dy=".8em" y="613.7000000476837" x="957.5">thinkJs</text></g></g><g id="minder_node46"><g id="node_expander45" style="cursor: pointer;" display="none"><path id="kity_path_397" fill="white" stroke="gray" d="M845.5,985.5A6,6,0,1,1,833.5,985.5A6,6,0,1,1,845.5,985.5"></path><path id="kity_path_398" fill="none" stroke="gray" d="M835,985.5L844,985.5"></path></g><path id="node_outline46" fill="none" stroke="none" d="M850.5,974.5h99a5,5,0,0,1,5,5v12a5,5,0,0,1,-5,5h-99a5,5,0,0,1,-5,-5v-12a5,5,0,0,1,5,-5z" stroke-width="3"></path><g id="node_text46" fill="black"><text id="kity_text_394" text-rendering="inherit" font-size="12" dy=".8em" y="977.7000000476837" x="855.5">桌面端/electorn</text></g></g><g id="minder_node48"><g id="node_expander48" style="cursor: pointer;"><path id="kity_path_421" fill="white" stroke="gray" d="M845.5,1037.5A6,6,0,1,1,833.5,1037.5A6,6,0,1,1,845.5,1037.5"></path><path id="kity_path_422" fill="none" stroke="gray" d="M835,1037.5L844,1037.5"></path></g><path id="node_outline49" fill="none" stroke="none" d="M850.5,1026.5h123a5,5,0,0,1,5,5v12a5,5,0,0,1,-5,5h-123a5,5,0,0,1,-5,-5v-12a5,5,0,0,1,5,-5z" stroke-width="3"></path><g id="node_text49" fill="black"><text id="kity_text_414" text-rendering="inherit" font-size="12" dy=".8em" y="1029.7000000476837" x="855.5">主力语言 TypeScript</text></g></g><g id="minder_node49"><g id="node_expander47" style="cursor: pointer;" display="none"><path id="kity_path_418" fill="white" stroke="gray" d="M1018.5,1037.5A6,6,0,1,1,1006.5,1037.5A6,6,0,1,1,1018.5,1037.5"></path><path id="kity_path_419" fill="none" stroke="gray"></path></g><path id="node_outline48" fill="none" stroke="none" d="M1023.5,1026.5h127a5,5,0,0,1,5,5v12a5,5,0,0,1,-5,5h-127a5,5,0,0,1,-5,-5v-12a5,5,0,0,1,5,-5z"></path><g id="node_text48" fill="black"><text id="kity_text_412" text-rendering="inherit" font-size="12" dy=".8em" y="1029.7000000476837" x="1028.5">重要子集：javaScript</text></g></g><g id="minder_node50"><g id="node_expander49" style="cursor: pointer;" display="none"><path id="kity_path_429" fill="white" stroke="gray" d="M845.5,1089.5A6,6,0,1,1,833.5,1089.5A6,6,0,1,1,845.5,1089.5"></path><path id="kity_path_430" fill="none" stroke="gray"></path></g><path id="node_outline50" fill="none" stroke="none" d="M850.5,1078.5h99a5,5,0,0,1,5,5v12a5,5,0,0,1,-5,5h-99a5,5,0,0,1,-5,-5v-12a5,5,0,0,1,5,-5z" stroke-width="3"></path><g id="node_text50" fill="black"><text id="kity_text_426" text-rendering="inherit" font-size="12" dy=".8em" y="1081.7000000476837" x="855.5">主力框架：react</text></g></g><g id="minder_node51" opacity="1"><g id="node_expander50" style="cursor: pointer;"><path id="kity_path_437" fill="white" stroke="gray" d="M833.5,231.5A6,6,0,1,1,821.5,231.5A6,6,0,1,1,833.5,231.5"></path><path id="kity_path_438" fill="none" stroke="gray" d="M823,231.5L832,231.5"></path></g><path id="node_outline51" fill="none" stroke="none" d="M838.5,220.5h72a5,5,0,0,1,5,5v12a5,5,0,0,1,-5,5h-72a5,5,0,0,1,-5,-5v-12a5,5,0,0,1,5,-5z" stroke-width="3"></path><g id="node_text51" fill="black"><text id="kity_text_434" text-rendering="inherit" font-size="12" dy=".8em" y="223.70000004768372" x="843.5">数据库操作</text></g></g><g id="minder_node55" opacity="1"><g id="node_expander54" style="cursor: pointer;" display="none"><path id="kity_path_469" fill="white" stroke="gray" d="M833.5,465.5A6,6,0,1,1,821.5,465.5A6,6,0,1,1,833.5,465.5"></path><path id="kity_path_470" fill="none" stroke="gray"></path></g><path id="node_outline55" fill="none" stroke="none" d="M838.5,454.5h98a5,5,0,0,1,5,5v12a5,5,0,0,1,-5,5h-98a5,5,0,0,1,-5,-5v-12a5,5,0,0,1,5,-5z" stroke-width="3"></path><g id="node_text55" fill="black"><text id="kity_text_466" text-rendering="inherit" font-size="12" dy=".8em" y="457.7000000476837" x="843.5">webSocket通信</text></g></g><g id="minder_node56"><g id="node_expander55" style="cursor: pointer;"><path id="kity_path_477" fill="white" stroke="gray" d="M723.5,374.5A6,6,0,1,1,711.5,374.5A6,6,0,1,1,723.5,374.5"></path><path id="kity_path_478" fill="none" stroke="gray" d="M713,374.5L722,374.5"></path></g><path id="node_outline56" fill="none" stroke="none" d="M728.5,363.5h60a5,5,0,0,1,5,5v12a5,5,0,0,1,-5,5h-60a5,5,0,0,1,-5,-5v-12a5,5,0,0,1,5,-5z" stroke-width="3"></path><g id="node_text56" fill="black"><text id="kity_text_474" text-rendering="inherit" font-size="12" dy=".8em" y="366.7000000476837" x="733.5">基础操作</text></g></g><g id="minder_node52"><g id="node_expander51" style="cursor: pointer;" display="none"><path id="kity_path_445" fill="white" stroke="gray" d="M955.5,205.5A6,6,0,1,1,943.5,205.5A6,6,0,1,1,955.5,205.5"></path><path id="kity_path_446" fill="none" stroke="gray" d="M945,205.5L954,205.5"></path></g><path id="node_outline52" fill="none" stroke="none" d="M960.5,194.5h51a5,5,0,0,1,5,5v12a5,5,0,0,1,-5,5h-51a5,5,0,0,1,-5,-5v-12a5,5,0,0,1,5,-5z" stroke-width="3"></path><g id="node_text52" fill="black"><text id="kity_text_442" text-rendering="inherit" font-size="12" dy=".8em" y="197.70000004768372" x="965.5">sql语法</text></g></g><g id="minder_node54"><g id="node_expander53" style="cursor: pointer;" display="none"><path id="kity_path_461" fill="white" stroke="gray" d="M955.5,257.5A6,6,0,1,1,943.5,257.5A6,6,0,1,1,955.5,257.5"></path><path id="kity_path_462" fill="none" stroke="gray"></path></g><path id="node_outline54" fill="none" stroke="none" d="M960.5,246.5h39a5,5,0,0,1,5,5v12a5,5,0,0,1,-5,5h-39a5,5,0,0,1,-5,-5v-12a5,5,0,0,1,5,-5z" stroke-width="3"></path><g id="node_text54" fill="black"><text id="kity_text_458" text-rendering="inherit" font-size="12" dy=".8em" y="249.70000004768372" x="965.5">ORM</text></g></g><g id="minder_node57"><g id="node_expander56" style="cursor: pointer;" display="none"><path id="kity_path_487" fill="white" stroke="gray" d="M723.5,673.5A6,6,0,1,1,711.5,673.5A6,6,0,1,1,723.5,673.5"></path><path id="kity_path_488" fill="none" stroke="gray" d="M713,673.5L722,673.5"></path></g><path id="node_outline57" fill="none" stroke="none" d="M728.5,662.5h48a5,5,0,0,1,5,5v12a5,5,0,0,1,-5,5h-48a5,5,0,0,1,-5,-5v-12a5,5,0,0,1,5,-5z" stroke-width="3"></path><g id="node_text57" fill="black"><text id="kity_text_484" text-rendering="inherit" font-size="12" dy=".8em" y="665.7000000476837" x="733.5">分布式</text></g></g><g id="minder_node59"><g id="node_expander58" style="cursor: pointer;" display="none"><path id="kity_path_503" fill="white" stroke="gray" d="M723.5,725.5A6,6,0,1,1,711.5,725.5A6,6,0,1,1,723.5,725.5"></path><path id="kity_path_504" fill="none" stroke="gray"></path></g><path id="node_outline59" fill="none" stroke="none" d="M728.5,714.5h48a5,5,0,0,1,5,5v12a5,5,0,0,1,-5,5h-48a5,5,0,0,1,-5,-5v-12a5,5,0,0,1,5,-5z" stroke-width="3"></path><g id="node_text59" fill="black"><text id="kity_text_500" text-rendering="inherit" font-size="12" dy=".8em" y="717.7000000476837" x="733.5">高并发</text></g></g><g id="minder_node60"><g id="node_expander59" style="cursor: pointer;" display="none"><path id="kity_path_511" fill="white" stroke="gray" d="M833.5,517.5A6,6,0,1,1,821.5,517.5A6,6,0,1,1,833.5,517.5"></path><path id="kity_path_512" fill="none" stroke="gray"></path></g><path id="node_outline60" fill="none" stroke="none" d="M838.5,506.5h86a5,5,0,0,1,5,5v12a5,5,0,0,1,-5,5h-86a5,5,0,0,1,-5,-5v-12a5,5,0,0,1,5,-5z" stroke-width="3"></path><g id="node_text60" fill="black"><text id="kity_text_508" text-rendering="inherit" font-size="12" dy=".8em" y="509.7000000476837" x="843.5">linux基本操作</text></g></g><g id="minder_node35"><g id="node_expander34" style="cursor: pointer;" display="none"><path id="kity_path_309" fill="white" stroke="gray" d="M942.5,1141.5A6,6,0,1,1,930.5,1141.5A6,6,0,1,1,942.5,1141.5"></path><path id="kity_path_310" fill="none" stroke="gray"></path></g><path id="node_outline35" fill="none" stroke="none" d="M947.5,1130.5h62a5,5,0,0,1,5,5v12a5,5,0,0,1,-5,5h-62a5,5,0,0,1,-5,-5v-12a5,5,0,0,1,5,-5z" stroke-width="3"></path><g id="node_text35" fill="black"><text id="kity_text_306" text-rendering="inherit" font-size="12" dy=".8em" y="1133.7000000476837" x="952.5">webpack</text></g></g><g id="minder_node61"><g id="node_expander60" style="cursor: pointer;" display="none"><path id="kity_path_520" fill="white" stroke="gray" d="M735.5,1193.5A6,6,0,1,1,723.5,1193.5A6,6,0,1,1,735.5,1193.5"></path><path id="kity_path_521" fill="none" stroke="gray" d="M725,1193.5L734,1193.5"></path></g><path id="node_outline61" fill="none" stroke="none" d="M740.5,1182.5h27a5,5,0,0,1,5,5v12a5,5,0,0,1,-5,5h-27a5,5,0,0,1,-5,-5v-12a5,5,0,0,1,5,-5z" stroke-width="3"></path><g id="node_text61" fill="black"><text id="kity_text_517" text-rendering="inherit" font-size="12" dy=".8em" y="1185.7000000476837" x="745.5">VR</text></g></g><g id="minder_node63"><g id="node_expander62" style="cursor: pointer;" display="none"><path id="kity_path_536" fill="white" stroke="gray" d="M735.5,1245.5A6,6,0,1,1,723.5,1245.5A6,6,0,1,1,735.5,1245.5"></path><path id="kity_path_537" fill="none" stroke="gray"></path></g><path id="node_outline63" fill="none" stroke="none" d="M740.5,1234.5h27a5,5,0,0,1,5,5v12a5,5,0,0,1,-5,5h-27a5,5,0,0,1,-5,-5v-12a5,5,0,0,1,5,-5z" stroke-width="3"></path><g id="node_text63" fill="black"><text id="kity_text_533" text-rendering="inherit" font-size="12" dy=".8em" y="1237.7000000476837" x="745.5">AR</text></g></g><g id="minder_node29"><g id="node_expander28" style="cursor: pointer;" display="none"><path id="kity_path_261" fill="white" stroke="gray" d="M702.5,1303.5A6,6,0,1,1,690.5,1303.5A6,6,0,1,1,702.5,1303.5"></path><path id="kity_path_262" fill="none" stroke="gray"></path></g><path id="node_outline29" fill="none" stroke="none" d="M707.5,1292.5h60a5,5,0,0,1,5,5v12a5,5,0,0,1,-5,5h-60a5,5,0,0,1,-5,-5v-12a5,5,0,0,1,5,-5z" stroke-width="3"></path><g id="node_text29" fill="black"><text id="kity_text_258" text-rendering="inherit" font-size="12" dy=".8em" y="1295.7000000476837" x="712.5">代码大全</text></g></g><g id="minder_node64"><g id="node_expander63" style="cursor: pointer;" display="none"><path id="kity_path_545" fill="white" stroke="gray" d="M702.5,1355.5A6,6,0,1,1,690.5,1355.5A6,6,0,1,1,702.5,1355.5"></path><path id="kity_path_546" fill="none" stroke="gray"></path></g><path id="node_outline64" fill="none" stroke="none" d="M707.5,1344.5h59a5,5,0,0,1,5,5v12a5,5,0,0,1,-5,5h-59a5,5,0,0,1,-5,-5v-12a5,5,0,0,1,5,-5z" stroke-width="3"></path><g id="node_text64" fill="black"><text id="kity_text_542" text-rendering="inherit" font-size="12" dy=".8em" y="1347.7000000476837" x="712.5">设计模式</text></g></g><g id="kity_g_12" display="none"><path id="kity_path_13" fill="none" stroke="rgb(66, 94, 112)" d="M628.5,1567.5h131a5,5,0,0,1,5,5v12a5,5,0,0,1,-5,5h-131a5,5,0,0,1,-5,-5v-12a5,5,0,0,1,5,-5z" stroke-width="5"></path></g><g id="minder_node8"><g id="node_expander7" style="cursor: pointer;" display="none"><path id="kity_path_87" fill="white" stroke="gray" d="M516.5,1827.5A6,6,0,1,1,504.5,1827.5A6,6,0,1,1,516.5,1827.5"></path><path id="kity_path_88" fill="none" stroke="gray"></path></g><path id="node_outline8" fill="none" stroke="none" d="M521.5,1816.5h96a5,5,0,0,1,5,5v12a5,5,0,0,1,-5,5h-96a5,5,0,0,1,-5,-5v-12a5,5,0,0,1,5,-5z" stroke-width="3"></path><g id="node_text8" fill="black"><text id="kity_text_84" text-rendering="inherit" font-size="12" dy=".8em" y="1819.7000000476837" x="526.5">奶奶的养老问题</text></g></g><g id="minder_node65"><g id="node_expander64" style="cursor: pointer;" display="none"><path id="kity_path_553" fill="white" stroke="gray" d="M638.5,1494.5A6,6,0,1,1,626.5,1494.5A6,6,0,1,1,638.5,1494.5"></path><path id="kity_path_554" fill="none" stroke="gray"></path></g><path id="node_outline65" fill="none" stroke="none" d="M643.5,1483.5h35a5,5,0,0,1,5,5v12a5,5,0,0,1,-5,5h-35a5,5,0,0,1,-5,-5v-12a5,5,0,0,1,5,-5z" stroke-width="3"></path><g id="node_text65" fill="black"><text id="kity_text_550" text-rendering="inherit" font-size="12" dy=".8em" y="1486.7000000476837" x="648.5">楷书</text></g></g><g id="minder_node6" opacity="1"><g id="node_expander5" style="cursor: pointer;"><path id="kity_path_71" fill="white" stroke="gray" d="M497.5,1494.5A6,6,0,1,1,485.5,1494.5A6,6,0,1,1,497.5,1494.5"></path><path id="kity_path_72" fill="none" stroke="gray" d="M487,1494.5L496,1494.5"></path></g><path id="node_outline6" fill="none" stroke="none" d="M502.5,1483.5h91a5,5,0,0,1,5,5v12a5,5,0,0,1,-5,5h-91a5,5,0,0,1,-5,-5v-12a5,5,0,0,1,5,-5z" stroke-width="3"></path><g id="node_text6" fill="black"><text id="kity_text_68" text-rendering="inherit" font-size="12" dy=".8em" y="1486.7000000476837" x="507.5">好看的书写(字)</text></g></g><g id="minder_node69"><g id="node_expander68" style="cursor: pointer;" display="none"><path id="kity_path_585" fill="white" stroke="gray" d="M803.5,1546.5A6,6,0,1,1,791.5,1546.5A6,6,0,1,1,803.5,1546.5"></path><path id="kity_path_586" fill="none" stroke="gray"></path></g><path id="node_outline69" fill="none" stroke="none" d="M808.5,1535.5h60a5,5,0,0,1,5,5v12a5,5,0,0,1,-5,5h-60a5,5,0,0,1,-5,-5v-12a5,5,0,0,1,5,-5z" stroke-width="3"></path><g id="node_text69" fill="black"><text id="kity_text_582" text-rendering="inherit" font-size="12" dy=".8em" y="1538.7000000476837" x="813.5">腰和颈椎</text></g></g><g id="minder_node70"><g id="node_expander69" style="cursor: pointer;" display="none"><path id="kity_path_593" fill="white" stroke="gray" d="M803.5,1598.5A6,6,0,1,1,791.5,1598.5A6,6,0,1,1,803.5,1598.5"></path><path id="kity_path_594" fill="none" stroke="gray"></path></g><path id="node_outline70" fill="none" stroke="none" d="M808.5,1587.5h60a5,5,0,0,1,5,5v12a5,5,0,0,1,-5,5h-60a5,5,0,0,1,-5,-5v-12a5,5,0,0,1,5,-5z" stroke-width="3"></path><g id="node_text70" fill="black"><text id="kity_text_590" text-rendering="inherit" font-size="12" dy=".8em" y="1590.7000000476837" x="813.5">避免久坐</text></g></g><g id="minder_node68" opacity="1"><g id="node_expander67" style="cursor: pointer;" display="none"><path id="kity_path_577" fill="white" stroke="gray" d="M803.5,1650.5A6,6,0,1,1,791.5,1650.5A6,6,0,1,1,803.5,1650.5"></path><path id="kity_path_578" fill="none" stroke="gray"></path></g><path id="node_outline68" fill="none" stroke="none" d="M808.5,1639.5h96a5,5,0,0,1,5,5v12a5,5,0,0,1,-5,5h-96a5,5,0,0,1,-5,-5v-12a5,5,0,0,1,5,-5z" stroke-width="3"></path><g id="node_text68" fill="black"><text id="kity_text_574" text-rendering="inherit" font-size="12" dy=".8em" y="1642.7000000476837" x="813.5">少熬夜，少伤身</text></g></g><g id="minder_node66"><g id="node_expander65" style="cursor: pointer;"><path id="kity_path_561" fill="white" stroke="gray" d="M622.5,1598.5A6,6,0,1,1,610.5,1598.5A6,6,0,1,1,622.5,1598.5"></path><path id="kity_path_562" fill="none" stroke="gray" d="M612,1598.5L621,1598.5"></path></g><path id="node_outline66" fill="none" stroke="none" d="M627.5,1587.5h131a5,5,0,0,1,5,5v12a5,5,0,0,1,-5,5h-131a5,5,0,0,1,-5,-5v-12a5,5,0,0,1,5,-5z" stroke-width="3"></path><g id="node_text66" fill="black"><text id="kity_text_558" text-rendering="inherit" font-size="12" dy=".8em" y="1590.7000000476837" x="632.5">身体保护，避免职业病</text></g></g><g id="minder_node67"><g id="node_expander66" style="cursor: pointer;" display="none"><path id="kity_path_569" fill="white" stroke="gray" d="M622.5,1702.5A6,6,0,1,1,610.5,1702.5A6,6,0,1,1,622.5,1702.5"></path><path id="kity_path_570" fill="none" stroke="gray"></path></g><path id="node_outline67" fill="none" stroke="none" d="M627.5,1691.5h60a5,5,0,0,1,5,5v12a5,5,0,0,1,-5,5h-60a5,5,0,0,1,-5,-5v-12a5,5,0,0,1,5,-5z" stroke-width="3"></path><g id="node_text67" fill="black"><text id="kity_text_566" text-rendering="inherit" font-size="12" dy=".8em" y="1694.7000000476837" x="632.5">体能增强</text></g></g><g id="minder_node4" opacity="1"><g id="node_expander3" style="cursor: pointer;"><path id="kity_path_52" fill="white" stroke="gray" d="M497.5,1650.5A6,6,0,1,1,485.5,1650.5A6,6,0,1,1,497.5,1650.5"></path><path id="kity_path_53" fill="none" stroke="gray" d="M487,1650.5L496,1650.5"></path></g><path id="node_outline4" fill="none" stroke="none" d="M502.5,1639.5h75a5,5,0,0,1,5,5v12a5,5,0,0,1,-5,5h-75a5,5,0,0,1,-5,-5v-12a5,5,0,0,1,5,-5z" stroke-width="3"></path><g id="node_text4" fill="black"><text id="kity_text_49" text-rendering="inherit" font-size="12" dy=".8em" y="1642.7000000476837" x="507.5">强健的体能&#xa0;</text></g></g><g id="minder_node72"><g id="node_expander71" style="cursor: pointer;" display="none"><path id="kity_path_611" fill="white" stroke="gray" d="M629.5,1754.5A6,6,0,1,1,617.5,1754.5A6,6,0,1,1,629.5,1754.5"></path><path id="kity_path_612" fill="none" stroke="gray"></path></g><path id="node_outline72" fill="none" stroke="none" d="M634.5,1743.5h83a5,5,0,0,1,5,5v12a5,5,0,0,1,-5,5h-83a5,5,0,0,1,-5,-5v-12a5,5,0,0,1,5,-5z" stroke-width="3"></path><g id="node_text72" fill="black"><text id="kity_text_608" text-rendering="inherit" font-size="12" dy=".8em" y="1746.7000000476837" x="639.5">经济政治方面</text></g></g><g id="minder_node71"><g id="node_expander70" style="cursor: pointer;"><path id="kity_path_602" fill="white" stroke="gray" d="M497.5,1754.5A6,6,0,1,1,485.5,1754.5A6,6,0,1,1,497.5,1754.5"></path><path id="kity_path_603" fill="none" stroke="gray" d="M487,1754.5L496,1754.5"></path></g><path id="node_outline71" fill="none" stroke="none" d="M502.5,1743.5h82a5,5,0,0,1,5,5v12a5,5,0,0,1,-5,5h-82a5,5,0,0,1,-5,-5v-12a5,5,0,0,1,5,-5z" stroke-width="3"></path><g id="node_text71" fill="black"><text id="kity_text_599" text-rendering="inherit" font-size="12" dy=".8em" y="1746.7000000476837" x="507.5">了解社会规则</text></g></g><g id="minder_node73"><g id="node_expander72" style="cursor: pointer;" display="none"><path id="kity_path_629" fill="white" stroke="gray" d="M516.5,1879.5A6,6,0,1,1,504.5,1879.5A6,6,0,1,1,516.5,1879.5"></path><path id="kity_path_630" fill="none" stroke="gray"></path></g><path id="node_outline73" fill="none" stroke="none" d="M521.5,1868.5h84a5,5,0,0,1,5,5v12a5,5,0,0,1,-5,5h-84a5,5,0,0,1,-5,-5v-12a5,5,0,0,1,5,-5z" stroke-width="3"></path><g id="node_text73" fill="black"><text id="kity_text_626" text-rendering="inherit" font-size="12" dy=".8em" y="1871.7000000476837" x="526.5">父母健康问题</text></g></g></g></g></svg>