<svg id="kity_svg_6" xmlns="http://www.w3.org/2000/svg" xmlns:xlink="http://www.w3.org/1999/xlink" version="1.1" width="1158" height="558" style="background: rgb(251, 251, 251); visibility: visible;" viewBox="0 0 1158 558"><defs id="kity_defs_7"><linearGradient id="kity_linearGradient_17" x1="0" y1="0" x2="0" y2="1"><stop id="kity_stop_18" offset="0" stop-color="rgb(255, 255, 255)"></stop><stop id="kity_stop_19" offset="1" stop-color="rgb(204, 204, 204)"></stop></linearGradient><marker id="kity_marker_2" orient="auto" refX="6" refY="0" viewBox="-7 -7 14 14" markerWidth="7" markerHeight="7" markerUnits="userSpaceOnUse"><path id="kity_path_3" fill="rgb(115, 161, 191)" stroke="none" d="M6,0A6,6,0,1,1,-6,0A6,6,0,1,1,6,0"></path></marker></defs><g id="kity_g_8"><g id="minder1" text-rendering="optimize-speed"><g id="minder_connect_group1"><path id="kity_path_31" fill="none" stroke="rgb(115, 161, 191)" stroke-width="1" d="M105.5,290.5A203,133,0,0,1,308.5,157.5"></path><path id="kity_path_33" fill="none" stroke="rgb(115, 161, 191)" stroke-width="1" d="M407.5,157.5C427.5,157.5,427.5,57.5,447.5,57.5"></path><path id="kity_path_35" fill="none" stroke="rgb(115, 161, 191)" stroke-width="1" d="M550.5,57.5C570.5,57.5,570.5,31.5,590.5,31.5"></path><path id="kity_path_37" fill="none" stroke="rgb(115, 161, 191)" stroke-width="1" d="M550.5,57.5C570.5,57.5,570.5,83.5,590.5,83.5"></path><path id="kity_path_39" fill="none" stroke="rgb(115, 161, 191)" stroke-width="1" d="M407.5,157.5C427.5,157.5,427.5,144.5,447.5,144.5"></path><path id="kity_path_41" fill="none" stroke="rgb(115, 161, 191)" stroke-width="1" d="M611.5,144.5C631.5,144.5,631.5,144.5,651.5,144.5"></path><path id="kity_path_43" fill="none" stroke="rgb(115, 161, 191)" stroke-width="1" d="M407.5,157.5C427.5,157.5,427.5,205.5,447.5,205.5"></path><path id="kity_path_45" fill="none" stroke="rgb(115, 161, 191)" stroke-width="1" d="M407.5,157.5C427.5,157.5,427.5,257.5,447.5,257.5"></path><path id="kity_path_47" fill="none" stroke="rgb(115, 161, 191)" stroke-width="1" d="M105.5,290.5A203,133,0,0,0,308.5,423.5"></path><path id="kity_path_49" fill="none" stroke="rgb(115, 161, 191)" stroke-width="1" d="M407.5,423.5C427.5,423.5,427.5,319.5,447.5,319.5"></path><path id="kity_path_51" fill="none" stroke="rgb(115, 161, 191)" stroke-width="1" d="M407.5,423.5C427.5,423.5,427.5,371.5,447.5,371.5"></path><path id="kity_path_53" fill="none" stroke="rgb(115, 161, 191)" stroke-width="1" d="M741.5,371.5C761.5,371.5,761.5,371.5,781.5,371.5"></path><path id="kity_path_55" fill="none" stroke="rgb(115, 161, 191)" stroke-width="1" d="M407.5,423.5C427.5,423.5,427.5,423.5,447.5,423.5"></path><path id="kity_path_57" fill="none" stroke="rgb(115, 161, 191)" stroke-width="1" d="M407.5,423.5C427.5,423.5,427.5,475.5,447.5,475.5"></path><path id="kity_path_59" fill="none" stroke="rgb(115, 161, 191)" stroke-width="1" d="M407.5,423.5C427.5,423.5,427.5,527.5,447.5,527.5"></path></g><g id="minder_node1"><path id="node_outline1" fill="rgb(115, 161, 191)" stroke="rgb(57, 80, 96)" d="M25.5,270.5h160a5,5,0,0,1,5,5v30a5,5,0,0,1,-5,5h-160a5,5,0,0,1,-5,-5v-30a5,5,0,0,1,5,-5z" stroke-width="3"></path><g id="node_text1" fill="white"><text id="kity_text_22" text-rendering="inherit" font-size="16" dy=".8em" y="280.09999990463257" x="44.5">chrome调试技巧</text></g></g><g id="kity_g_12"><path id="kity_path_13" fill="none" stroke="none" d="M44.5,290.5h0v0h0z"></path></g><g id="kity_g_14"><path id="kity_path_15" fill="none" stroke="none" d="M44.5,290.5h0v0h0z"></path><path id="kity_path_16" fill="none" stroke="none"></path></g><g id="minder_node2"><g id="node_expander8" style="cursor: pointer;"><path id="kity_path_128" fill="white" stroke="gray" d="M309.5,157.5A6,6,0,1,1,297.5,157.5A6,6,0,1,1,309.5,157.5"></path><path id="kity_path_129" fill="none" stroke="gray" d="M299,157.5L308,157.5"></path></g><path id="node_outline9" fill="rgb(238, 243, 246)" stroke="rgb(115, 161, 191)" d="M313.5,144.5h91a3,3,0,0,1,3,3v20a3,3,0,0,1,-3,3h-91a3,3,0,0,1,-3,-3v-20a3,3,0,0,1,3,-3z" stroke-width="1"></path><g id="node_text9" fill="black"><text id="kity_text_76" text-rendering="inherit" font-size="14" dy=".8em" y="148.40000009536743" x="330.5">有意思的</text></g></g><g id="minder_node3"><g id="node_expander3" style="cursor: pointer;"><path id="kity_path_113" fill="white" stroke="gray" d="M447.5,57.5A6,6,0,1,1,435.5,57.5A6,6,0,1,1,447.5,57.5"></path><path id="kity_path_114" fill="none" stroke="gray" d="M437,57.5L446,57.5"></path></g><path id="node_outline4" fill="none" stroke="none" d="M452.5,46.5h93a5,5,0,0,1,5,5v12a5,5,0,0,1,-5,5h-93a5,5,0,0,1,-5,-5v-12a5,5,0,0,1,5,-5z"></path><g id="node_text4" fill="black"><text id="kity_text_65" text-rendering="inherit" font-size="12" dy=".8em" y="49.700000047683716" x="457.5">command命令</text></g></g><g id="minder_node4"><g id="node_expander1" display="none" style="cursor: pointer;"><path id="kity_path_107" fill="white" stroke="gray" d="M590.5,31.5A6,6,0,1,1,578.5,31.5A6,6,0,1,1,590.5,31.5"></path><path id="kity_path_108" fill="none" stroke="gray"></path></g><path id="node_outline2" fill="none" stroke="none" d="M595.5,20.5h73a5,5,0,0,1,5,5v12a5,5,0,0,1,-5,5h-73a5,5,0,0,1,-5,-5v-12a5,5,0,0,1,5,-5z"></path><g id="node_text2" fill="black"><text id="kity_text_61" text-rendering="inherit" font-size="12" dy=".8em" y="23.700000047683716" x="600.5">theme主题</text></g></g><g id="minder_node5"><g id="node_expander2" display="none" style="cursor: pointer;"><path id="kity_path_110" fill="white" stroke="gray" d="M590.5,83.5A6,6,0,1,1,578.5,83.5A6,6,0,1,1,590.5,83.5"></path><path id="kity_path_111" fill="none" stroke="gray"></path></g><path id="node_outline3" fill="none" stroke="none" d="M595.5,72.5h142a5,5,0,0,1,5,5v12a5,5,0,0,1,-5,5h-142a5,5,0,0,1,-5,-5v-12a5,5,0,0,1,5,-5z"></path><g id="node_text3" fill="black"><text id="kity_text_63" text-rendering="inherit" font-size="12" dy=".8em" y="75.70000004768372" x="600.5">网页截图，尤其是长截图</text></g></g><g id="minder_node6"><g id="node_expander5" style="cursor: pointer;"><path id="kity_path_119" fill="white" stroke="gray" d="M447.5,144.5A6,6,0,1,1,435.5,144.5A6,6,0,1,1,447.5,144.5"></path><path id="kity_path_120" fill="none" stroke="gray" d="M437,144.5L446,144.5"></path></g><path id="node_outline6" fill="none" stroke="none" d="M452.5,133.5h154a5,5,0,0,1,5,5v12a5,5,0,0,1,-5,5h-154a5,5,0,0,1,-5,-5v-12a5,5,0,0,1,5,-5z"></path><g id="node_text6" fill="black"><text id="kity_text_70" text-rendering="inherit" font-size="12" dy=".8em" y="136.70000004768372" x="457.5">在console面板中使用npm</text></g></g><g id="minder_node7"><g id="node_expander4" display="none" style="cursor: pointer;"><path id="kity_path_116" fill="white" stroke="gray" d="M651.5,144.5A6,6,0,1,1,639.5,144.5A6,6,0,1,1,651.5,144.5"></path><path id="kity_path_117" fill="none" stroke="gray"></path></g><path id="node_outline5" fill="none" stroke="none" d="M656.5,124.5h248a5,5,0,0,1,5,5v30a5,5,0,0,1,-5,5h-248a5,5,0,0,1,-5,-5v-30a5,5,0,0,1,5,-5z"></path><g id="node_text5" fill="black"><text id="kity_text_67" text-rendering="inherit" font-size="12" dy=".8em" y="127.70000004768372" x="661.5">1.安装chorme插件Console Importer</text><text id="kity_text_68" text-rendering="inherit" font-size="12" dy=".8em" y="145.70000004768372" x="661.5">2.在console面板中使用$i('lodash')安装依赖</text></g></g><g id="minder_node8"><g id="node_expander6" display="none" style="cursor: pointer;"><path id="kity_path_122" fill="white" stroke="gray" d="M447.5,205.5A6,6,0,1,1,435.5,205.5A6,6,0,1,1,447.5,205.5"></path><path id="kity_path_123" fill="none" stroke="gray"></path></g><path id="node_outline7" fill="none" stroke="none" d="M452.5,194.5h127a5,5,0,0,1,5,5v12a5,5,0,0,1,-5,5h-127a5,5,0,0,1,-5,-5v-12a5,5,0,0,1,5,-5z"></path><g id="node_text7" fill="black"><text id="kity_text_72" text-rendering="inherit" font-size="12" dy=".8em" y="197.70000004768372" x="457.5">在chrome保存代码块</text></g></g><g id="minder_node9"><g id="node_expander7" display="none" style="cursor: pointer;"><path id="kity_path_125" fill="white" stroke="gray" d="M447.5,257.5A6,6,0,1,1,435.5,257.5A6,6,0,1,1,447.5,257.5"></path><path id="kity_path_126" fill="none" stroke="gray"></path></g><path id="node_outline8" fill="none" stroke="none" d="M452.5,246.5h233a5,5,0,0,1,5,5v12a5,5,0,0,1,-5,5h-233a5,5,0,0,1,-5,-5v-12a5,5,0,0,1,5,-5z"></path><g id="node_text8" fill="black"><text id="kity_text_74" text-rendering="inherit" font-size="12" dy=".8em" y="249.70000004768372" x="457.5">element面板元素，h可隐藏，再按可展示</text></g></g><g id="minder_node10"><g id="node_expander15" style="cursor: pointer;"><path id="kity_path_149" fill="white" stroke="gray" d="M309.5,423.5A6,6,0,1,1,297.5,423.5A6,6,0,1,1,309.5,423.5"></path><path id="kity_path_150" fill="none" stroke="gray" d="M299,423.5L308,423.5"></path></g><path id="node_outline16" fill="rgb(238, 243, 246)" stroke="rgb(115, 161, 191)" d="M313.5,410.5h91a3,3,0,0,1,3,3v20a3,3,0,0,1,-3,3h-91a3,3,0,0,1,-3,-3v-20a3,3,0,0,1,3,-3z" stroke-width="1"></path><g id="node_text16" fill="black"><text id="kity_text_90" text-rendering="inherit" font-size="14" dy=".8em" y="414.40000009536743" x="330.5">我想用的</text></g></g><g id="minder_node11"><g id="node_expander9" display="none" style="cursor: pointer;"><path id="kity_path_131" fill="white" stroke="gray" d="M447.5,319.5A6,6,0,1,1,435.5,319.5A6,6,0,1,1,447.5,319.5"></path><path id="kity_path_132" fill="none" stroke="gray"></path></g><path id="node_outline10" fill="none" stroke="none" d="M452.5,308.5h164a5,5,0,0,1,5,5v12a5,5,0,0,1,-5,5h-164a5,5,0,0,1,-5,-5v-12a5,5,0,0,1,5,-5z"></path><g id="node_text10" fill="black"><text id="kity_text_78" text-rendering="inherit" font-size="12" dy=".8em" y="311.7000000476837" x="457.5">console.table(object/array)</text></g></g><g id="minder_node12"><g id="node_expander11" style="cursor: pointer;"><path id="kity_path_137" fill="white" stroke="gray" d="M447.5,371.5A6,6,0,1,1,435.5,371.5A6,6,0,1,1,447.5,371.5"></path><path id="kity_path_138" fill="none" stroke="gray" d="M437,371.5L446,371.5"></path></g><path id="node_outline12" fill="none" stroke="none" d="M452.5,360.5h284a5,5,0,0,1,5,5v12a5,5,0,0,1,-5,5h-284a5,5,0,0,1,-5,-5v-12a5,5,0,0,1,5,-5z"></path><g id="node_text12" fill="black"><text id="kity_text_82" text-rendering="inherit" font-size="12" dy=".8em" y="363.7000000476837" x="457.5">console.log打印的时候为什么使用JSON.stringify()</text></g></g><g id="minder_node13"><g id="node_expander10" display="none" style="cursor: pointer;"><path id="kity_path_134" fill="white" stroke="gray" d="M781.5,371.5A6,6,0,1,1,769.5,371.5A6,6,0,1,1,781.5,371.5"></path><path id="kity_path_135" fill="none" stroke="gray"></path></g><path id="node_outline11" fill="none" stroke="none" d="M786.5,360.5h347a5,5,0,0,1,5,5v12a5,5,0,0,1,-5,5h-347a5,5,0,0,1,-5,-5v-12a5,5,0,0,1,5,-5z"></path><g id="node_text11" fill="black"><text id="kity_text_80" text-rendering="inherit" font-size="12" dy=".8em" y="363.7000000476837" x="791.5">因为打印对象是引用类型，对象会改变，打印出来结果前后一样</text></g></g><g id="minder_node14"><g id="node_expander12" display="none" style="cursor: pointer;"><path id="kity_path_140" fill="white" stroke="gray" d="M447.5,423.5A6,6,0,1,1,435.5,423.5A6,6,0,1,1,447.5,423.5"></path><path id="kity_path_141" fill="none" stroke="gray"></path></g><path id="node_outline13" fill="none" stroke="none" d="M452.5,412.5h59a5,5,0,0,1,5,5v12a5,5,0,0,1,-5,5h-59a5,5,0,0,1,-5,-5v-12a5,5,0,0,1,5,-5z"></path><g id="node_text13" fill="black"><text id="kity_text_84" text-rendering="inherit" font-size="12" dy=".8em" y="415.7000000476837" x="457.5">条件断点</text></g></g><g id="minder_node15"><g id="node_expander13" display="none" style="cursor: pointer;"><path id="kity_path_143" fill="white" stroke="gray" d="M447.5,475.5A6,6,0,1,1,435.5,475.5A6,6,0,1,1,447.5,475.5"></path><path id="kity_path_144" fill="none" stroke="gray"></path></g><path id="node_outline14" fill="none" stroke="none" d="M452.5,464.5h274a5,5,0,0,1,5,5v12a5,5,0,0,1,-5,5h-274a5,5,0,0,1,-5,-5v-12a5,5,0,0,1,5,-5z"></path><g id="node_text14" fill="black"><text id="kity_text_86" text-rendering="inherit" font-size="12" dy=".8em" y="467.7000000476837" x="457.5">network面板可以设置展示列，以及设置响应头部</text></g></g><g id="minder_node16"><g id="node_expander14" display="none" style="cursor: pointer;"><path id="kity_path_146" fill="white" stroke="gray" d="M447.5,527.5A6,6,0,1,1,435.5,527.5A6,6,0,1,1,447.5,527.5"></path><path id="kity_path_147" fill="none" stroke="gray"></path></g><path id="node_outline15" fill="none" stroke="none" d="M452.5,516.5h274a5,5,0,0,1,5,5v12a5,5,0,0,1,-5,5h-274a5,5,0,0,1,-5,-5v-12a5,5,0,0,1,5,-5z"></path><g id="node_text15" fill="black"><text id="kity_text_88" text-rendering="inherit" font-size="12" dy=".8em" y="519.7000000476837" x="457.5">element元素，内置了阴影调试和贝塞尔曲线调试</text></g></g></g></g></svg>