<svg id="kity_svg_6" xmlns="http://www.w3.org/2000/svg" xmlns:xlink="http://www.w3.org/1999/xlink" version="1.1" width="1155" height="629" style="background: rgb(251, 251, 251); visibility: visible;" viewBox="0 0 1155 629"><defs id="kity_defs_7"><linearGradient id="kity_linearGradient_17" x1="0" y1="0" x2="0" y2="1"><stop id="kity_stop_18" offset="0" stop-color="rgb(255, 255, 255)"></stop><stop id="kity_stop_19" offset="1" stop-color="rgb(204, 204, 204)"></stop></linearGradient><marker id="kity_marker_2" orient="auto" refX="6" refY="0" viewBox="-7 -7 14 14" markerWidth="7" markerHeight="7" markerUnits="userSpaceOnUse"><path id="kity_path_3" fill="rgb(115, 161, 191)" stroke="none" d="M6,0A6,6,0,1,1,-6,0A6,6,0,1,1,6,0"></path></marker></defs><g id="kity_g_8"><g id="minder1" text-rendering="optimize-speed"><g id="minder_connect_group1"><path id="kity_path_31" fill="none" stroke="rgb(115, 161, 191)" stroke-width="1" d="M94,310.5A191.5,277,0,0,1,285.5,33.5"></path><path id="kity_path_39" fill="none" stroke="rgb(115, 161, 191)" stroke-width="1" d="M384.5,33.5C404.5,33.5,404.5,33.5,424.5,33.5"></path><path id="kity_path_47" fill="none" stroke="rgb(115, 161, 191)" stroke-width="1" d="M94,310.5A179.5,51.5,0,0,1,273.5,259"></path><path id="kity_path_159" fill="none" stroke="rgb(115, 161, 191)" stroke-width="1" d="M94,310.5A206.5,204,0,0,0,300.5,514.5"></path><path id="kity_path_182" fill="none" stroke="rgb(115, 161, 191)" stroke-width="1" d="M371.5,514.5C391.5,514.5,391.5,488.5,411.5,488.5"></path><path id="kity_path_183" fill="none" stroke="rgb(115, 161, 191)" stroke-width="1" d="M371.5,514.5C391.5,514.5,391.5,540.5,411.5,540.5"></path><path id="kity_path_185" fill="none" stroke="rgb(115, 161, 191)" stroke-width="1" d="M94,310.5A196.5,286,0,0,0,290.5,596.5"></path><path id="kity_path_208" fill="none" stroke="rgb(115, 161, 191)" stroke-width="1" d="M798.5,596.5C818.5,596.5,818.5,596.5,838.5,596.5"></path><path id="kity_path_209" fill="none" stroke="rgb(115, 161, 191)" stroke-width="1" d="M404.5,596.5C424.5,596.5,424.5,596.5,444.5,596.5"></path><path id="kity_path_249" fill="none" stroke="rgb(115, 161, 191)" stroke-width="1" d="M393.5,259.5C413.5,259,413.5,103.5,433.5,103.5"></path><path id="kity_path_250" fill="none" stroke="rgb(115, 161, 191)" stroke-width="1" d="M479.5,181.5C499.5,181.5,499.5,155.5,519.5,155.5"></path><path id="kity_path_251" fill="none" stroke="rgb(115, 161, 191)" stroke-width="1" d="M479.5,181.5C499.5,181.5,499.5,207.5,519.5,207.5"></path><path id="kity_path_252" fill="none" stroke="rgb(115, 161, 191)" stroke-width="1" d="M393.5,259.5C413.5,259,413.5,181.5,433.5,181.5"></path><path id="kity_path_253" fill="none" stroke="rgb(115, 161, 191)" stroke-width="1" d="M588.5,285.5C608.5,285.5,608.5,259.5,628.5,259.5"></path><path id="kity_path_254" fill="none" stroke="rgb(115, 161, 191)" stroke-width="1" d="M588.5,285.5C608.5,285.5,608.5,311.5,628.5,311.5"></path><path id="kity_path_255" fill="none" stroke="rgb(115, 161, 191)" stroke-width="1" d="M503.5,324.5C523.5,324.5,523.5,285.5,543.5,285.5"></path><path id="kity_path_256" fill="none" stroke="rgb(115, 161, 191)" stroke-width="1" d="M686.5,363.5C706.5,363.5,706.5,363.5,726.5,363.5"></path><path id="kity_path_257" fill="none" stroke="rgb(115, 161, 191)" stroke-width="1" d="M503.5,324.5C523.5,324.5,523.5,363.5,543.5,363.5"></path><path id="kity_path_258" fill="none" stroke="rgb(115, 161, 191)" stroke-width="1" d="M393.5,259.5C413.5,259,413.5,324.5,433.5,324.5"></path><path id="kity_path_259" fill="none" stroke="rgb(115, 161, 191)" stroke-width="1" d="M393.5,259.5C416.5,259,416.5,423.5,439.5,423.5"></path></g><g id="minder_node1"><path id="node_outline1" fill="rgb(115, 161, 191)" stroke="rgb(115, 161, 191)" d="M25.5,290.5h137a5,5,0,0,1,5,5v30a5,5,0,0,1,-5,5h-137a5,5,0,0,1,-5,-5v-30a5,5,0,0,1,5,-5z" stroke-width="3"></path><g id="node_text1" fill="white"><text id="kity_text_22" text-rendering="inherit" font-size="16" dy=".8em" y="300.09999990463257" x="44.5">pm2基础使用</text></g></g><g id="kity_g_14" display="none"><path id="kity_path_15" fill="rgba(0, 92, 153, 0.5)" stroke="none" d="M424.5,170.5h46v15h-46z"></path><path id="kity_path_16" fill="none" stroke="rgb(0, 76, 128)" d="M424.5,185.5L470.5,185.5" stroke-width="1"></path></g><g id="minder_node2"><g id="node_expander1" style="cursor: pointer;"><path id="kity_path_36" fill="white" stroke="gray" d="M286.5,33.5A6,6,0,1,1,274.5,33.5A6,6,0,1,1,286.5,33.5"></path><path id="kity_path_37" fill="none" stroke="gray" d="M276,33.5L285,33.5"></path></g><path id="node_outline2" fill="rgb(238, 243, 246)" stroke="rgb(115, 161, 191)" d="M290.5,20.5h91a3,3,0,0,1,3,3v20a3,3,0,0,1,-3,3h-91a3,3,0,0,1,-3,-3v-20a3,3,0,0,1,3,-3z" stroke-width="1"></path><g id="node_text2" fill="black"><text id="kity_text_33" text-rendering="inherit" font-size="14" dy=".8em" y="24.40000009536743" x="307.5">参考文章</text></g></g><g id="minder_node3"><g id="node_expander2" style="cursor: pointer;" display="none"><path id="kity_path_44" fill="white" stroke="gray" d="M424.5,33.5A6,6,0,1,1,412.5,33.5A6,6,0,1,1,424.5,33.5"></path><path id="kity_path_45" fill="none" stroke="gray"></path></g><path id="node_outline3" fill="none" stroke="none" d="M429.5,22.5h395a5,5,0,0,1,5,5v12a5,5,0,0,1,-5,5h-395a5,5,0,0,1,-5,-5v-12a5,5,0,0,1,5,-5z" stroke-width="3"></path><g id="node_text3" fill="black"><text id="kity_text_41" text-rendering="inherit" font-size="12" dy=".8em" y="25.700000047683716" x="434.5">https://wohugb.gitbooks.io/pm2/content/features/quick-start.html</text></g></g><g id="minder_node4" opacity="1"><g id="node_expander3" style="cursor: pointer;"><path id="kity_path_52" fill="white" stroke="gray" d="M274.5,259A6,6,0,1,1,262.5,259A6,6,0,1,1,274.5,259"></path><path id="kity_path_53" fill="none" stroke="gray" d="M264,259L273,259"></path></g><path id="node_outline4" fill="rgb(238, 243, 246)" stroke="rgb(115, 161, 191)" d="M278.5,244.5h112a3,3,0,0,1,3,3v23a3,3,0,0,1,-3,3h-112a3,3,0,0,1,-3,-3v-23a3,3,0,0,1,3,-3z" stroke-width="1"></path><g id="node_text4" fill="black"><text id="kity_text_49" text-rendering="inherit" font-size="14" dy=".8em" y="249.40000009536743" x="295.5">常用命令</text></g><g id="kity_g_260" style="cursor: pointer;"><path id="kity_path_261" fill="none" stroke="none" d="M360,250h12a2,2,0,0,1,2,2v13a2,2,0,0,1,-2,2h-12a2,2,0,0,1,-2,-2v-13a2,2,0,0,1,2,-2z"></path><path id="kity_path_262" fill="black" stroke="none" d="M369,261H363V260h6L369,261L369,261zM369,259H363V258h6V259zM369,257H363V256h6V257zM368.5,263H362V254h8v7.5M369,264l2,-2V253H361v11"></path></g></g><g id="minder_node18" opacity="1"><g id="node_expander17" style="cursor: pointer;"><path id="kity_path_164" fill="white" stroke="gray" d="M301.5,514.5A6,6,0,1,1,289.5,514.5A6,6,0,1,1,301.5,514.5"></path><path id="kity_path_165" fill="none" stroke="gray" d="M291,514.5L300,514.5"></path></g><path id="node_outline18" fill="rgb(238, 243, 246)" stroke="rgb(115, 161, 191)" d="M305.5,501.5h63a3,3,0,0,1,3,3v20a3,3,0,0,1,-3,3h-63a3,3,0,0,1,-3,-3v-20a3,3,0,0,1,3,-3z" stroke-width="1"></path><g id="node_text18" fill="black"><text id="kity_text_161" text-rendering="inherit" font-size="14" dy=".8em" y="505.40000009536743" x="322.5">日志</text></g></g><g id="minder_node19"><g id="node_expander18" style="cursor: pointer;" display="none"><path id="kity_path_172" fill="white" stroke="gray" d="M411.5,488.5A6,6,0,1,1,399.5,488.5A6,6,0,1,1,411.5,488.5"></path><path id="kity_path_173" fill="none" stroke="gray"></path></g><path id="node_outline19" fill="none" stroke="none" d="M416.5,477.5h471a5,5,0,0,1,5,5v12a5,5,0,0,1,-5,5h-471a5,5,0,0,1,-5,-5v-12a5,5,0,0,1,5,-5z" stroke-width="3"></path><g id="node_text19" fill="black"><text id="kity_text_169" text-rendering="inherit" font-size="12" dy=".8em" y="480.7000000476837" x="421.5">至于日志处理，查看参考文章：https://juejin.im/post/5d5620c0f265da03c4288b2d</text></g></g><g id="minder_node20"><g id="node_expander19" style="cursor: pointer;" display="none"><path id="kity_path_180" fill="white" stroke="gray" d="M411.5,540.5A6,6,0,1,1,399.5,540.5A6,6,0,1,1,411.5,540.5"></path><path id="kity_path_181" fill="none" stroke="gray"></path></g><path id="node_outline20" fill="none" stroke="none" d="M416.5,529.5h229a5,5,0,0,1,5,5v12a5,5,0,0,1,-5,5h-229a5,5,0,0,1,-5,-5v-12a5,5,0,0,1,5,-5z" stroke-width="3"></path><g id="node_text20" fill="black"><text id="kity_text_177" text-rendering="inherit" font-size="12" dy=".8em" y="532.7000000476837" x="421.5">由于thinkjs内置了日志处理模块，故忽略</text></g></g><g id="minder_node21" opacity="1"><g id="node_expander20" style="cursor: pointer;"><path id="kity_path_190" fill="white" stroke="gray" d="M291.5,596.5A6,6,0,1,1,279.5,596.5A6,6,0,1,1,291.5,596.5"></path><path id="kity_path_191" fill="none" stroke="gray" d="M281,596.5L290,596.5"></path></g><path id="node_outline21" fill="rgb(238, 243, 246)" stroke="rgb(115, 161, 191)" d="M295.5,583.5h106a3,3,0,0,1,3,3v20a3,3,0,0,1,-3,3h-106a3,3,0,0,1,-3,-3v-20a3,3,0,0,1,3,-3z" stroke-width="1"></path><g id="node_text21" fill="black"><text id="kity_text_187" text-rendering="inherit" font-size="14" dy=".8em" y="587.4000000953674" x="312.5">遇到的问题</text></g></g><g id="minder_node23"><g id="node_expander22" style="cursor: pointer;" display="none"><path id="kity_path_206" fill="white" stroke="gray" d="M838.5,596.5A6,6,0,1,1,826.5,596.5A6,6,0,1,1,838.5,596.5"></path><path id="kity_path_207" fill="none" stroke="gray"></path></g><path id="node_outline23" fill="none" stroke="none" d="M843.5,585.5h287a5,5,0,0,1,5,5v12a5,5,0,0,1,-5,5h-287a5,5,0,0,1,-5,-5v-12a5,5,0,0,1,5,-5z" stroke-width="3"></path><g id="node_text23" fill="black"><text id="kity_text_203" text-rendering="inherit" font-size="12" dy=".8em" y="588.7000000476837" x="848.5">先解决阿里云中文乱码问题，在删除进程，之后启动</text></g></g><g id="minder_node22"><g id="node_expander21" style="cursor: pointer;"><path id="kity_path_198" fill="white" stroke="gray" d="M444.5,596.5A6,6,0,1,1,432.5,596.5A6,6,0,1,1,444.5,596.5"></path><path id="kity_path_199" fill="none" stroke="gray" d="M434,596.5L443,596.5"></path></g><path id="node_outline22" fill="none" stroke="none" d="M449.5,585.5h344a5,5,0,0,1,5,5v12a5,5,0,0,1,-5,5h-344a5,5,0,0,1,-5,-5v-12a5,5,0,0,1,5,-5z" stroke-width="3"></path><g id="node_text22" fill="black"><text id="kity_text_195" text-rendering="inherit" font-size="12" dy=".8em" y="588.7000000476837" x="454.5">阿里云终端：pm2 list 查看进程信息的时候，发现name栏乱码</text></g></g><g id="kity_g_12" display="none"><path id="kity_path_13" fill="none" stroke="rgb(66, 94, 112)" d="M429.5,190.5h36a5,5,0,0,1,5,5v12a5,5,0,0,1,-5,5h-36a5,5,0,0,1,-5,-5v-12a5,5,0,0,1,5,-5z" stroke-width="5"></path></g><g id="minder_node6"><g id="node_expander5" style="cursor: pointer;" display="none"><path id="kity_path_68" fill="white" stroke="gray" d="M433.5,103.5A6,6,0,1,1,421.5,103.5A6,6,0,1,1,433.5,103.5"></path><path id="kity_path_69" fill="none" stroke="gray"></path></g><path id="node_outline6" fill="none" stroke="none" d="M438.5,92.5h266a5,5,0,0,1,5,5v12a5,5,0,0,1,-5,5h-266a5,5,0,0,1,-5,-5v-12a5,5,0,0,1,5,-5z" stroke-width="3"></path><g id="node_text6" fill="black"><text id="kity_text_65" text-rendering="inherit" font-size="12" dy=".8em" y="95.70000004768372" x="443.5">启动pm2进程服务：pm2 start name/配置文件</text></g></g><g id="minder_node7" opacity="1"><g id="node_expander6" style="cursor: pointer;" display="none"><path id="kity_path_76" fill="white" stroke="gray" d="M519.5,155.5A6,6,0,1,1,507.5,155.5A6,6,0,1,1,519.5,155.5"></path><path id="kity_path_77" fill="none" stroke="gray"></path></g><path id="node_outline7" fill="none" stroke="none" d="M524.5,144.5h133a5,5,0,0,1,5,5v12a5,5,0,0,1,-5,5h-133a5,5,0,0,1,-5,-5v-12a5,5,0,0,1,5,-5z" stroke-width="3"></path><g id="node_text7" fill="black"><text id="kity_text_73" text-rendering="inherit" font-size="12" dy=".8em" y="147.70000004768372" x="529.5">查看当前状态 pm2 list</text></g></g><g id="minder_node24" opacity="1"><g id="node_expander23" style="cursor: pointer;" display="none"><path id="kity_path_216" fill="white" stroke="gray" d="M519.5,207.5A6,6,0,1,1,507.5,207.5A6,6,0,1,1,519.5,207.5"></path><path id="kity_path_217" fill="none" stroke="gray"></path></g><path id="node_outline24" fill="none" stroke="none" d="M524.5,196.5h214a5,5,0,0,1,5,5v12a5,5,0,0,1,-5,5h-214a5,5,0,0,1,-5,-5v-12a5,5,0,0,1,5,-5z" stroke-width="3"></path><g id="node_text24" fill="black"><text id="kity_text_213" text-rendering="inherit" font-size="12" dy=".8em" y="199.70000004768372" x="529.5">查看具体项目详情：pm2 show name</text></g></g><g id="minder_node25"><g id="node_expander24" style="cursor: pointer;"><path id="kity_path_224" fill="white" stroke="gray" d="M433.5,181.5A6,6,0,1,1,421.5,181.5A6,6,0,1,1,433.5,181.5"></path><path id="kity_path_225" fill="none" stroke="gray" d="M423,181.5L432,181.5"></path></g><path id="node_outline25" fill="none" stroke="none" d="M438.5,170.5h36a5,5,0,0,1,5,5v12a5,5,0,0,1,-5,5h-36a5,5,0,0,1,-5,-5v-12a5,5,0,0,1,5,-5z" stroke-width="3"></path><g id="node_text25" fill="black"><text id="kity_text_221" text-rendering="inherit" font-size="12" dy=".8em" y="173.70000004768372" x="443.5">查看</text></g></g><g id="minder_node16"><g id="node_expander15" style="cursor: pointer;" display="none"><path id="kity_path_148" fill="white" stroke="gray" d="M628.5,259.5A6,6,0,1,1,616.5,259.5A6,6,0,1,1,628.5,259.5"></path><path id="kity_path_149" fill="none" stroke="gray"></path></g><path id="node_outline16" fill="none" stroke="none" d="M633.5,248.5h191a5,5,0,0,1,5,5v12a5,5,0,0,1,-5,5h-191a5,5,0,0,1,-5,-5v-12a5,5,0,0,1,5,-5z" stroke-width="3"></path><g id="node_text16" fill="black"><text id="kity_text_145" text-rendering="inherit" font-size="12" dy=".8em" y="251.70000004768372" x="638.5">无需停机重载: pm2 reload name</text></g></g><g id="minder_node17"><g id="node_expander16" style="cursor: pointer;" display="none"><path id="kity_path_156" fill="white" stroke="gray" d="M628.5,311.5A6,6,0,1,1,616.5,311.5A6,6,0,1,1,628.5,311.5"></path><path id="kity_path_157" fill="none" stroke="gray"></path></g><path id="node_outline17" fill="none" stroke="none" d="M633.5,300.5h197a5,5,0,0,1,5,5v12a5,5,0,0,1,-5,5h-197a5,5,0,0,1,-5,-5v-12a5,5,0,0,1,5,-5z" stroke-width="3"></path><g id="node_text17" fill="black"><text id="kity_text_153" text-rendering="inherit" font-size="12" dy=".8em" y="303.7000000476837" x="638.5">重启(服务中断) pm2 restart name</text></g></g><g id="minder_node10"><g id="node_expander9" style="cursor: pointer;"><path id="kity_path_100" fill="white" stroke="gray" d="M543.5,285.5A6,6,0,1,1,531.5,285.5A6,6,0,1,1,543.5,285.5"></path><path id="kity_path_101" fill="none" stroke="gray" d="M533,285.5L542,285.5"></path></g><path id="node_outline10" fill="none" stroke="none" d="M548.5,274.5h35a5,5,0,0,1,5,5v12a5,5,0,0,1,-5,5h-35a5,5,0,0,1,-5,-5v-12a5,5,0,0,1,5,-5z" stroke-width="3"></path><g id="node_text10" fill="black"><text id="kity_text_97" text-rendering="inherit" font-size="12" dy=".8em" y="277.7000000476837" x="553.5">基础</text></g></g><g id="minder_node13"><g id="node_expander12" style="cursor: pointer;" display="none"><path id="kity_path_124" fill="white" stroke="gray" d="M726.5,363.5A6,6,0,1,1,714.5,363.5A6,6,0,1,1,726.5,363.5"></path><path id="kity_path_125" fill="none" stroke="gray"></path></g><path id="node_outline13" fill="none" stroke="none" d="M731.5,352.5h191a5,5,0,0,1,5,5v12a5,5,0,0,1,-5,5h-191a5,5,0,0,1,-5,-5v-12a5,5,0,0,1,5,-5z" stroke-width="3"></path><g id="node_text13" fill="black"><text id="kity_text_121" text-rendering="inherit" font-size="12" dy=".8em" y="355.7000000476837" x="736.5">pm2 sendSignal SIGUSR2 name</text></g></g><g id="minder_node11"><g id="node_expander10" style="cursor: pointer;"><path id="kity_path_108" fill="white" stroke="gray" d="M543.5,363.5A6,6,0,1,1,531.5,363.5A6,6,0,1,1,543.5,363.5"></path><path id="kity_path_109" fill="none" stroke="gray" d="M533,363.5L542,363.5"></path></g><path id="node_outline11" fill="none" stroke="none" d="M548.5,352.5h133a5,5,0,0,1,5,5v12a5,5,0,0,1,-5,5h-133a5,5,0,0,1,-5,-5v-12a5,5,0,0,1,5,-5z" stroke-width="3"></path><g id="node_text11" fill="black"><text id="kity_text_105" text-rendering="inherit" font-size="12" dy=".8em" y="355.7000000476837" x="553.5">thinkjs的项目平滑重启</text></g></g><g id="minder_node9"><g id="node_expander8" style="cursor: pointer;"><path id="kity_path_92" fill="white" stroke="gray" d="M433.5,324.5A6,6,0,1,1,421.5,324.5A6,6,0,1,1,433.5,324.5"></path><path id="kity_path_93" fill="none" stroke="gray" d="M423,324.5L432,324.5"></path></g><path id="node_outline9" fill="none" stroke="none" d="M438.5,313.5h60a5,5,0,0,1,5,5v12a5,5,0,0,1,-5,5h-60a5,5,0,0,1,-5,-5v-12a5,5,0,0,1,5,-5z" stroke-width="3"></path><g id="node_text9" fill="black"><text id="kity_text_89" text-rendering="inherit" font-size="12" dy=".8em" y="316.7000000476837" x="443.5">项目重载</text></g></g><g id="minder_node8" opacity="1"><g id="node_expander7" style="cursor: pointer;" display="none"><path id="kity_path_84" fill="white" stroke="gray" d="M439.5,423.5A6,6,0,1,1,427.5,423.5A6,6,0,1,1,439.5,423.5"></path><path id="kity_path_85" fill="none" stroke="gray"></path></g><path id="node_outline8" fill="none" stroke="none" d="M444.5,412.5h211a5,5,0,0,1,5,5v12a5,5,0,0,1,-5,5h-211a5,5,0,0,1,-5,-5v-12a5,5,0,0,1,5,-5z" stroke-width="3"></path><g id="node_text8" fill="black"><text id="kity_text_81" text-rendering="inherit" font-size="12" dy=".8em" y="415.7000000476837" x="449.5">删除某个进程 pm2 delete name/pid</text></g></g></g></g></svg>