<svg id="kity_svg_6" xmlns="http://www.w3.org/2000/svg" xmlns:xlink="http://www.w3.org/1999/xlink" version="1.1" width="2489" height="1499" style="background: rgb(251, 251, 251); visibility: visible;" viewBox="0 0 2489 1499"><defs id="kity_defs_7"><linearGradient id="kity_linearGradient_17" x1="0" y1="0" x2="0" y2="1"><stop id="kity_stop_18" offset="0" stop-color="rgb(255, 255, 255)"></stop><stop id="kity_stop_19" offset="1" stop-color="rgb(204, 204, 204)"></stop></linearGradient><marker id="kity_marker_2" orient="auto" refX="6" refY="0" viewBox="-7 -7 14 14" markerWidth="7" markerHeight="7" markerUnits="userSpaceOnUse"><path id="kity_path_3" fill="rgb(115, 161, 191)" stroke="none" d="M6,0A6,6,0,1,1,-6,0A6,6,0,1,1,6,0"></path></marker></defs><g id="kity_g_8"><g id="minder1" text-rendering="optimize-speed"><g id="minder_connect_group1"><path id="kity_path_31" fill="none" stroke="rgb(115, 161, 191)" stroke-width="1" d="M1014,749.5A357.5,497,0,0,1,1371.5,252.5"></path><path id="kity_path_53" fill="none" stroke="rgb(115, 161, 191)" stroke-width="1" d="M1014,749.5A328.5,2,0,0,1,685.5,751.5"></path><path id="kity_path_55" fill="none" stroke="rgb(115, 161, 191)" stroke-width="1" d="M1014,749.5A347.5,717,0,0,0,1361.5,1466.5"></path><path id="kity_path_57" fill="none" stroke="rgb(115, 161, 191)" stroke-width="1" d="M1014,749.5A296.5,115,0,0,0,1310.5,864.5"></path><path id="kity_path_59" fill="none" stroke="rgb(115, 161, 191)" stroke-width="1" d="M1014,749.5A289.5,197,0,0,0,724.5,552.5"></path><path id="kity_path_61" fill="none" stroke="rgb(115, 161, 191)" stroke-width="1" d="M1014,749.5A275.5,222,0,0,1,738.5,971.5"></path><path id="kity_path_634" fill="none" stroke="rgb(115, 161, 191)" stroke-width="1" d="M597.5,552.5C582.5,552.5,582.5,566.5,567.5,566.5L404.5,566.5"></path><path id="kity_path_637" fill="none" stroke="rgb(115, 161, 191)" stroke-width="1" d="M1460.5,864.5C1483,864.5,1483,717.5,1505.5,717.5L1897.5,717.5"></path><path id="kity_path_638" fill="none" stroke="rgb(115, 161, 191)" stroke-width="1" d="M1570.5,989.5C1585.5,989.5,1585.5,855.5,1600.5,855.5L1937.5,855.5"></path><path id="kity_path_639" fill="none" stroke="rgb(115, 161, 191)" stroke-width="1" d="M1570.5,989.5C1585.5,989.5,1585.5,907.5,1600.5,907.5L1938.5,907.5"></path><path id="kity_path_640" fill="none" stroke="rgb(115, 161, 191)" stroke-width="1" d="M1910.5,1021.5C1940,1021.5,1940,1089.5,1969.5,1089.5L2304.5,1089.5"></path><path id="kity_path_641" fill="none" stroke="rgb(115, 161, 191)" stroke-width="1" d="M1736.5,1141.5C1775,1141.5,1775,1021.5,1813.5,1021.5L1910.5,1021.5"></path><path id="kity_path_642" fill="none" stroke="rgb(115, 161, 191)" stroke-width="1" d="M1924.5,1281.5C1939.5,1281.5,1939.5,1317.5,1954.5,1317.5L2147.5,1317.5"></path><path id="kity_path_643" fill="none" stroke="rgb(115, 161, 191)" stroke-width="1" d="M1736.5,1141.5C1766.5,1141.5,1766.5,1281.5,1796.5,1281.5L1924.5,1281.5"></path><path id="kity_path_644" fill="none" stroke="rgb(115, 161, 191)" stroke-width="1" d="M1963.5,1167.5C1978.5,1167.5,1978.5,1194.5,1993.5,1194.5L2196.5,1194.5"></path><path id="kity_path_645" fill="none" stroke="rgb(115, 161, 191)" stroke-width="1" d="M1736.5,1141.5C1754.5,1141.5,1754.5,1167.5,1772.5,1167.5L1963.5,1167.5"></path><path id="kity_path_646" fill="none" stroke="rgb(115, 161, 191)" stroke-width="1" d="M1736.5,1141.5C1750.5,1141.5,1750.5,1394.5,1764.5,1394.5L2077.5,1394.5"></path><path id="kity_path_647" fill="none" stroke="rgb(115, 161, 191)" stroke-width="1" d="M1570.5,989.5C1585.5,989.5,1585.5,1141.5,1600.5,1141.5L1736.5,1141.5"></path><path id="kity_path_648" fill="none" stroke="rgb(115, 161, 191)" stroke-width="1" d="M1460.5,864.5C1475.5,864.5,1475.5,989.5,1490.5,989.5L1570.5,989.5"></path><path id="kity_path_664" fill="none" stroke="rgb(115, 161, 191)" stroke-width="1" d="M1691.5,88.5C1706.5,88.5,1706.5,45.5,1721.5,45.5L1965.5,45.5"></path><path id="kity_path_665" fill="none" stroke="rgb(115, 161, 191)" stroke-width="1" d="M1776.5,132.5C1791.5,132.5,1791.5,97.5,1806.5,97.5L2241.5,97.5"></path><path id="kity_path_666" fill="none" stroke="rgb(115, 161, 191)" stroke-width="1" d="M1776.5,132.5C1791.5,132.5,1791.5,167.5,1806.5,167.5L2222.5,167.5"></path><path id="kity_path_667" fill="none" stroke="rgb(115, 161, 191)" stroke-width="1" d="M1691.5,88.5C1706.5,88.5,1706.5,132.5,1721.5,132.5L1776.5,132.5"></path><path id="kity_path_668" fill="none" stroke="rgb(115, 161, 191)" stroke-width="1" d="M1581.5,252.5C1596.5,252.5,1596.5,88.5,1611.5,88.5L1691.5,88.5"></path><path id="kity_path_669" fill="none" stroke="rgb(115, 161, 191)" stroke-width="1" d="M2000.5,254.5C2015.5,254.5,2015.5,219.5,2030.5,219.5L2414.5,219.5"></path><path id="kity_path_670" fill="none" stroke="rgb(115, 161, 191)" stroke-width="1" d="M2000.5,254.5C2015.5,254.5,2015.5,289.5,2030.5,289.5L2469.5,289.5"></path><path id="kity_path_671" fill="none" stroke="rgb(115, 161, 191)" stroke-width="1" d="M1833.5,297.5C1848.5,297.5,1848.5,254.5,1863.5,254.5L2000.5,254.5"></path><path id="kity_path_672" fill="none" stroke="rgb(115, 161, 191)" stroke-width="1" d="M1833.5,297.5C1848.5,297.5,1848.5,341.5,1863.5,341.5L1954.5,341.5"></path><path id="kity_path_673" fill="none" stroke="rgb(115, 161, 191)" stroke-width="1" d="M1581.5,252.5C1596.5,252.5,1596.5,297.5,1611.5,297.5L1833.5,297.5"></path><path id="kity_path_677" fill="none" stroke="rgb(115, 161, 191)" stroke-width="1" d="M1581.5,252.5C1597.5,252.5,1597.5,471.5,1613.5,471.5L1693.5,471.5"></path><path id="kity_path_678" fill="none" stroke="rgb(115, 161, 191)" stroke-width="1" d="M1474.5,1466.5C1492,1466.5,1492,1466.5,1509.5,1466.5L1660.5,1466.5"></path><path id="kity_path_679" fill="none" stroke="rgb(115, 161, 191)" stroke-width="1" d="M1693.5,471.5C1708.5,471.5,1708.5,419.5,1723.5,419.5L1960.5,419.5"></path><path id="kity_path_680" fill="none" stroke="rgb(115, 161, 191)" stroke-width="1" d="M1693.5,471.5C1708.5,471.5,1708.5,471.5,1723.5,471.5L1963.5,471.5"></path><path id="kity_path_681" fill="none" stroke="rgb(115, 161, 191)" stroke-width="1" d="M1693.5,471.5C1708.5,471.5,1708.5,523.5,1723.5,523.5L1951.5,523.5"></path><path id="kity_path_682" fill="none" stroke="rgb(115, 161, 191)" stroke-width="1" d="M526.5,971.5C511.5,971.5,511.5,959.5,496.5,959.5L141.5,959.5"></path><path id="kity_path_683" fill="none" stroke="rgb(115, 161, 191)" stroke-width="1" d="M526.5,971.5C511.5,971.5,511.5,1011.5,496.5,1011.5L20.5,1011.5"></path><path id="kity_path_684" fill="none" stroke="rgb(115, 161, 191)" stroke-width="1" d="M557.5,751.5C538,751.5,538,774.5,518.5,774.5L329.5,774.5"></path></g><g id="minder_node1"><path id="node_outline1" fill="rgb(115, 161, 191)" stroke="rgb(115, 161, 191)" d="M863.5,729.5h301a5,5,0,0,1,5,5v30a5,5,0,0,1,-5,5h-301a5,5,0,0,1,-5,-5v-30a5,5,0,0,1,5,-5z" stroke-width="3"></path><g id="node_text1" fill="white"><text id="kity_text_22" text-rendering="inherit" font-size="16" dy=".8em" y="739.0999999046326" x="882.5">阿里云node项目部署（基础备忘录）</text></g></g><g id="kity_g_14" display="none"><path id="kity_path_15" fill="rgba(0, 92, 153, 0.5)" stroke="none" d="M1300.5,1278.5h126v20h-126z"></path><path id="kity_path_16" fill="none" stroke="rgb(0, 76, 128)" d="M1300.5,1278.5L1426.5,1278.5" stroke-width="1"></path></g><g id="minder_node2" opacity="1"><g id="node_expander11" style="cursor: pointer;"><path id="kity_path_143" fill="white" stroke="gray" d="M1372.5,252.5A6,6,0,1,1,1360.5,252.5A6,6,0,1,1,1372.5,252.5"></path><path id="kity_path_144" fill="none" stroke="gray" d="M1362,252.5L1371,252.5"></path></g><path id="node_outline12" fill="rgb(238, 243, 246)" stroke="rgb(115, 161, 191)" d="M1376.5,239.5h202a3,3,0,0,1,3,3v20a3,3,0,0,1,-3,3h-202a3,3,0,0,1,-3,-3v-20a3,3,0,0,1,3,-3z" stroke-width="1"></path><g id="node_text12" fill="black"><text id="kity_text_85" text-rendering="inherit" font-size="14" dy=".8em" y="243.40000009536743" x="1393.5">mysql(8.0版本)数据库部署</text></g></g><g id="minder_node13" opacity="1"><g id="node_expander12" style="cursor: pointer;"><path id="kity_path_146" fill="white" stroke="gray" d="M556.5,751.5A6,6,0,1,1,544.5,751.5A6,6,0,1,1,556.5,751.5"></path><path id="kity_path_147" fill="none" stroke="gray" d="M546,751.5L555,751.5"></path></g><path id="node_outline13" fill="rgb(238, 243, 246)" stroke="rgb(115, 161, 191)" d="M560.5,738.5h120a3,3,0,0,1,3,3v20a3,3,0,0,1,-3,3h-120a3,3,0,0,1,-3,-3v-20a3,3,0,0,1,3,-3z" stroke-width="1"></path><g id="node_text13" fill="black"><text id="kity_text_87" text-rendering="inherit" font-size="14" dy=".8em" y="742.4000000953674" x="577.5">后端代码部署</text></g></g><g id="minder_node14" opacity="1"><g id="node_expander13" style="cursor: pointer;"><path id="kity_path_149" fill="white" stroke="gray" d="M1487.5,1466.5A6,6,0,1,1,1475.5,1466.5A6,6,0,1,1,1487.5,1466.5"></path><path id="kity_path_150" fill="none" stroke="gray" d="M1477,1466.5L1486,1466.5"></path></g><path id="node_outline14" fill="rgb(238, 243, 246)" stroke="rgb(115, 161, 191)" d="M1366.5,1453.5h105a3,3,0,0,1,3,3v20a3,3,0,0,1,-3,3h-105a3,3,0,0,1,-3,-3v-20a3,3,0,0,1,3,-3z" stroke-width="1"></path><g id="node_text14" fill="black"><text id="kity_text_89" text-rendering="inherit" font-size="14" dy=".8em" y="1457.4000000953674" x="1383.5">阿里云配置</text></g></g><g id="minder_node15" opacity="1"><g id="node_expander14" style="cursor: pointer;"><path id="kity_path_152" fill="white" stroke="gray" d="M1311.5,864.5A6,6,0,1,1,1299.5,864.5A6,6,0,1,1,1311.5,864.5"></path><path id="kity_path_153" fill="none" stroke="gray" d="M1301,864.5L1310,864.5"></path></g><path id="node_outline15" fill="rgb(238, 243, 246)" stroke="rgb(115, 161, 191)" d="M1315.5,851.5h142a3,3,0,0,1,3,3v20a3,3,0,0,1,-3,3h-142a3,3,0,0,1,-3,-3v-20a3,3,0,0,1,3,-3z" stroke-width="1"></path><g id="node_text15" fill="black"><text id="kity_text_91" text-rendering="inherit" font-size="14" dy=".8em" y="855.4000000953674" x="1332.5">nginx服务器配置</text></g></g><g id="minder_node16" opacity="1"><g id="node_expander15" style="cursor: pointer;"><path id="kity_path_155" fill="white" stroke="gray" d="M735.5,552.5A6,6,0,1,1,723.5,552.5A6,6,0,1,1,735.5,552.5"></path><path id="kity_path_156" fill="none" stroke="gray" d="M725,552.5L734,552.5"></path></g><path id="node_outline16" fill="rgb(238, 243, 246)" stroke="rgb(115, 161, 191)" d="M600.5,539.5h119a3,3,0,0,1,3,3v20a3,3,0,0,1,-3,3h-119a3,3,0,0,1,-3,-3v-20a3,3,0,0,1,3,-3z" stroke-width="1"></path><g id="node_text16" fill="black"><text id="kity_text_93" text-rendering="inherit" font-size="14" dy=".8em" y="543.4000000953674" x="617.5">前端代码部署</text></g></g><g id="minder_node17" opacity="1"><g id="node_expander16" style="cursor: pointer;"><path id="kity_path_158" fill="white" stroke="gray" d="M749.5,971.5A6,6,0,1,1,737.5,971.5A6,6,0,1,1,749.5,971.5"></path><path id="kity_path_159" fill="none" stroke="gray" d="M739,971.5L748,971.5"></path></g><path id="node_outline17" fill="rgb(238, 243, 246)" stroke="rgb(115, 161, 191)" d="M529.5,958.5h204a3,3,0,0,1,3,3v20a3,3,0,0,1,-3,3h-204a3,3,0,0,1,-3,-3v-20a3,3,0,0,1,3,-3z" stroke-width="1"></path><g id="node_text17" fill="black"><text id="kity_text_95" text-rendering="inherit" font-size="14" dy=".8em" y="962.4000000953674" x="546.5">域名以及备案问题，待更新</text></g></g><g id="kity_g_12" display="none"><path id="kity_path_13" fill="none" stroke="rgb(66, 94, 112)" d="M863.5,729.5h301a5,5,0,0,1,5,5v30a5,5,0,0,1,-5,5h-301a5,5,0,0,1,-5,-5v-30a5,5,0,0,1,5,-5z" stroke-width="5"></path></g><g id="minder_node67"><g id="node_expander66" style="cursor: pointer;" display="none"><path id="kity_path_631" fill="white" stroke="gray" d="M569.5,552.5A6,6,0,1,1,557.5,552.5A6,6,0,1,1,569.5,552.5"></path><path id="kity_path_632" fill="none" stroke="gray"></path></g><path id="node_outline67" fill="none" stroke="none" d="M409.5,541.5h143a5,5,0,0,1,5,5v12a5,5,0,0,1,-5,5h-143a5,5,0,0,1,-5,-5v-12a5,5,0,0,1,5,-5z" stroke-width="3"></path><g id="node_text67" fill="black"><text id="kity_text_628" text-rendering="inherit" font-size="12" dy=".8em" y="544.7000000476837" x="414.5">打包上传到指定路径即可</text></g></g><g id="minder_node22" opacity="1"><g id="node_expander21" style="cursor: pointer;" display="none"><path id="kity_path_198" fill="white" stroke="gray" d="M1515.5,694.5A6,6,0,1,1,1503.5,694.5A6,6,0,1,1,1515.5,694.5"></path><path id="kity_path_199" fill="none" stroke="gray"></path></g><path id="node_outline22" fill="none" stroke="none" d="M1520.5,674.5h372a5,5,0,0,1,5,5v30a5,5,0,0,1,-5,5h-372a5,5,0,0,1,-5,-5v-30a5,5,0,0,1,5,-5z" stroke-width="3"></path><g id="node_text22" fill="black"><text id="kity_text_195" text-rendering="inherit" font-size="12" dy=".8em" y="677.7000000476837" x="1525.5">教程：阿里云ECS服务器部署Node.js项目全过程详解</text><text id="kity_text_201" text-rendering="inherit" font-size="12" dy=".8em" y="695.7000000476837" x="1525.5">https://juejin.im/post/5ba4b0175188255c82551090#heading-2</text></g></g><g id="minder_node26"><g id="node_expander25" style="cursor: pointer;" display="none"><path id="kity_path_245" fill="white" stroke="gray" d="M1610.5,832.5A6,6,0,1,1,1598.5,832.5A6,6,0,1,1,1610.5,832.5"></path><path id="kity_path_246" fill="none" stroke="gray"></path></g><path id="node_outline26" fill="none" stroke="none" d="M1615.5,812.5h317a5,5,0,0,1,5,5v30a5,5,0,0,1,-5,5h-317a5,5,0,0,1,-5,-5v-30a5,5,0,0,1,5,-5z" stroke-width="3"></path><g id="node_text26" fill="black"><text id="kity_text_242" text-rendering="inherit" font-size="12" dy=".8em" y="815.7000000476837" x="1620.5">1.sites-enabled-server中新增文件，是不能有文件后缀的</text><text id="kity_text_247" text-rendering="inherit" font-size="12" dy=".8em" y="833.7000000476837" x="1620.5">例如default文件，而不是default.txt</text></g></g><g id="minder_node28"><g id="node_expander27" style="cursor: pointer;" display="none"><path id="kity_path_262" fill="white" stroke="gray" d="M1610.5,893.5A6,6,0,1,1,1598.5,893.5A6,6,0,1,1,1610.5,893.5"></path><path id="kity_path_263" fill="none" stroke="gray"></path></g><path id="node_outline28" fill="none" stroke="none" d="M1615.5,882.5h318a5,5,0,0,1,5,5v12a5,5,0,0,1,-5,5h-318a5,5,0,0,1,-5,-5v-12a5,5,0,0,1,5,-5z" stroke-width="3"></path><g id="node_text28" fill="black"><text id="kity_text_259" text-rendering="inherit" font-size="12" dy=".8em" y="885.7000000476837" x="1620.5">2.教程的4.3节说得对，照做，去node官网找对应的版本。</text></g></g><g id="minder_node62" opacity="1"><g id="node_expander61" style="cursor: pointer;" display="none"><path id="kity_path_560" fill="white" stroke="gray" d="M1979.5,1048.5A6,6,0,1,1,1967.5,1048.5A6,6,0,1,1,1979.5,1048.5"></path><path id="kity_path_561" fill="none" stroke="gray"></path></g><path id="node_outline62" fill="none" stroke="none" d="M1984.5,1010.5h315a5,5,0,0,1,5,5v66a5,5,0,0,1,-5,5h-315a5,5,0,0,1,-5,-5v-66a5,5,0,0,1,5,-5z" stroke-width="3"></path><g id="node_text62" fill="black"><text id="kity_text_557" text-rendering="inherit" font-size="12" dy=".8em" y="1013.7000000476837" x="1989.5">set $node_port 8360;&#xa0; &#xa0;//设置node端口</text><text id="kity_text_562" text-rendering="inherit" font-size="12" dy=".8em" y="1031.7000000476837" x="1989.5">location ~ ^/api/ {	&#xa0; &#xa0;</text><text id="kity_text_563" text-rendering="inherit" font-size="12" dy=".8em" y="1049.7000000476837" x="1989.5">&#xa0; proxy_pass http://127.0.0.1:$node_port$request_uri;</text><text id="kity_text_564" text-rendering="inherit" font-size="12" dy=".8em" y="1067.7000000476837" x="1989.5">&#xa0;}</text></g></g><g id="minder_node51" opacity="1"><g id="node_expander50" style="cursor: pointer;"><path id="kity_path_472" fill="white" stroke="gray" d="M1823.5,1007.5A6,6,0,1,1,1811.5,1007.5A6,6,0,1,1,1823.5,1007.5"></path><path id="kity_path_473" fill="none" stroke="gray" d="M1813,1007.5L1822,1007.5"></path></g><path id="node_outline51" fill="none" stroke="none" d="M1828.5,996.5h77a5,5,0,0,1,5,5v12a5,5,0,0,1,-5,5h-77a5,5,0,0,1,-5,-5v-12a5,5,0,0,1,5,-5z" stroke-width="3"></path><g id="node_text51" fill="black"><text id="kity_text_469" text-rendering="inherit" font-size="12" dy=".8em" y="999.7000000476837" x="1833.5">api反向代理</text></g></g><g id="minder_node33"><g id="node_expander32" style="cursor: pointer;" display="none"><path id="kity_path_306" fill="white" stroke="gray" d="M1964.5,1267.5A6,6,0,1,1,1952.5,1267.5A6,6,0,1,1,1964.5,1267.5"></path><path id="kity_path_307" fill="none" stroke="gray" d="M1954,1267.5L1963,1267.5"></path></g><path id="node_outline33" fill="none" stroke="none" d="M1969.5,1220.5h173a5,5,0,0,1,5,5v84a5,5,0,0,1,-5,5h-173a5,5,0,0,1,-5,-5v-84a5,5,0,0,1,5,-5z" stroke-width="3"></path><g id="node_text33" fill="black"><text id="kity_text_303" text-rendering="inherit" font-size="12" dy=".8em" y="1223.7000000476837" x="1974.5">location ~ ^/静态资源api {	&#xa0; &#xa0;</text><text id="kity_text_462" text-rendering="inherit" font-size="12" dy=".8em" y="1241.7000000476837" x="1974.5">&#xa0;root 静态资源目录;</text><text id="kity_text_463" text-rendering="inherit" font-size="12" dy=".8em" y="1259.7000000476837" x="1974.5">&#xa0;etag&#xa0; &#xa0; &#xa0; &#xa0; &#xa0;on;</text><text id="kity_text_464" text-rendering="inherit" font-size="12" dy=".8em" y="1277.7000000476837" x="1974.5">&#xa0;expires&#xa0; &#xa0; &#xa0; max;	</text><text id="kity_text_465" text-rendering="inherit" font-size="12" dy=".8em" y="1295.7000000476837" x="1974.5">}</text></g></g><g id="minder_node32" opacity="1"><g id="node_expander31" style="cursor: pointer;"><path id="kity_path_298" fill="white" stroke="gray" d="M1806.5,1267.5A6,6,0,1,1,1794.5,1267.5A6,6,0,1,1,1806.5,1267.5"></path><path id="kity_path_299" fill="none" stroke="gray" d="M1796,1267.5L1805,1267.5"></path></g><path id="node_outline32" fill="none" stroke="none" d="M1811.5,1256.5h108a5,5,0,0,1,5,5v12a5,5,0,0,1,-5,5h-108a5,5,0,0,1,-5,-5v-12a5,5,0,0,1,5,-5z" stroke-width="3"></path><g id="node_text32" fill="black"><text id="kity_text_295" text-rendering="inherit" font-size="12" dy=".8em" y="1259.7000000476837" x="1816.5">解决静态资源问题</text></g></g><g id="minder_node31" opacity="1"><g id="node_expander30" style="cursor: pointer;" display="none"><path id="kity_path_287" fill="white" stroke="gray" d="M2003.5,1153.5A6,6,0,1,1,1991.5,1153.5A6,6,0,1,1,2003.5,1153.5"></path><path id="kity_path_288" fill="none" stroke="gray"></path></g><path id="node_outline31" fill="none" stroke="none" d="M2008.5,1115.5h183a5,5,0,0,1,5,5v66a5,5,0,0,1,-5,5h-183a5,5,0,0,1,-5,-5v-66a5,5,0,0,1,5,-5z" stroke-width="3"></path><g id="node_text31" fill="black"><text id="kity_text_284" text-rendering="inherit" font-size="12" dy=".8em" y="1118.7000000476837" x="2013.5">location / {		</text><text id="kity_text_289" text-rendering="inherit" font-size="12" dy=".8em" y="1136.7000000476837" x="2013.5">root 项目目录;</text><text id="kity_text_290" text-rendering="inherit" font-size="12" dy=".8em" y="1154.7000000476837" x="2013.5">		try_files $uri $uri/ /index.html;</text><text id="kity_text_291" text-rendering="inherit" font-size="12" dy=".8em" y="1172.7000000476837" x="2013.5">	}</text></g></g><g id="minder_node46" opacity="1"><g id="node_expander45" style="cursor: pointer;"><path id="kity_path_420" fill="white" stroke="gray" d="M1782.5,1153.5A6,6,0,1,1,1770.5,1153.5A6,6,0,1,1,1782.5,1153.5"></path><path id="kity_path_421" fill="none" stroke="gray" d="M1772,1153.5L1781,1153.5"></path></g><path id="node_outline46" fill="none" stroke="none" d="M1787.5,1142.5h171a5,5,0,0,1,5,5v12a5,5,0,0,1,-5,5h-171a5,5,0,0,1,-5,-5v-12a5,5,0,0,1,5,-5z" stroke-width="3"></path><g id="node_text46" fill="black"><text id="kity_text_417" text-rendering="inherit" font-size="12" dy=".8em" y="1145.7000000476837" x="1792.5">解决history模式下的路由转发</text></g></g><g id="minder_node63" opacity="1"><g id="node_expander62" style="cursor: pointer;" display="none"><path id="kity_path_571" fill="white" stroke="gray" d="M1774.5,1380.5A6,6,0,1,1,1762.5,1380.5A6,6,0,1,1,1774.5,1380.5"></path><path id="kity_path_572" fill="none" stroke="gray"></path></g><path id="node_outline63" fill="none" stroke="none" d="M1779.5,1369.5h293a5,5,0,0,1,5,5v12a5,5,0,0,1,-5,5h-293a5,5,0,0,1,-5,-5v-12a5,5,0,0,1,5,-5z" stroke-width="3"></path><g id="node_text63" fill="black"><text id="kity_text_568" text-rendering="inherit" font-size="12" dy=".8em" y="1372.7000000476837" x="1784.5">注意api反向代理需要放在最上面，因为路由匹配规则</text></g></g><g id="minder_node29"><g id="node_expander28" style="cursor: pointer;"><path id="kity_path_270" fill="white" stroke="gray" d="M1610.5,1127.5A6,6,0,1,1,1598.5,1127.5A6,6,0,1,1,1610.5,1127.5"></path><path id="kity_path_271" fill="none" stroke="gray" d="M1600,1127.5L1609,1127.5"></path></g><path id="node_outline29" fill="none" stroke="none" d="M1615.5,1116.5h116a5,5,0,0,1,5,5v12a5,5,0,0,1,-5,5h-116a5,5,0,0,1,-5,-5v-12a5,5,0,0,1,5,-5z" stroke-width="3"></path><g id="node_text29" fill="black"><text id="kity_text_267" text-rendering="inherit" font-size="12" dy=".8em" y="1119.7000000476837" x="1620.5">3.项目是单文件项目</text></g></g><g id="minder_node23"><g id="node_expander22" style="cursor: pointer;"><path id="kity_path_208" fill="white" stroke="gray" d="M1500.5,975.5A6,6,0,1,1,1488.5,975.5A6,6,0,1,1,1500.5,975.5"></path><path id="kity_path_209" fill="none" stroke="gray" d="M1490,975.5L1499,975.5"></path></g><path id="node_outline23" fill="none" stroke="none" d="M1505.5,964.5h60a5,5,0,0,1,5,5v12a5,5,0,0,1,-5,5h-60a5,5,0,0,1,-5,-5v-12a5,5,0,0,1,5,-5z" stroke-width="3"></path><g id="node_text23" fill="black"><text id="kity_text_205" text-rendering="inherit" font-size="12" dy=".8em" y="967.7000000476837" x="1510.5">教程补充</text></g></g><g id="minder_node4"><g id="node_expander1" style="cursor: pointer;" display="none"><path id="kity_path_113" fill="white" stroke="gray" d="M1731.5,31.5A6,6,0,1,1,1719.5,31.5A6,6,0,1,1,1731.5,31.5"></path><path id="kity_path_114" fill="none" stroke="gray"></path></g><path id="node_outline2" fill="none" stroke="none" d="M1736.5,20.5h224a5,5,0,0,1,5,5v12a5,5,0,0,1,-5,5h-224a5,5,0,0,1,-5,-5v-12a5,5,0,0,1,5,-5z" stroke-width="3"></path><g id="node_text2" fill="black"><text id="kity_text_63" text-rendering="inherit" font-size="12" dy=".8em" y="23.700000047683716" x="1741.5">https://yq.aliyun.com/articles/676680</text></g></g><g id="minder_node6"><g id="node_expander2" style="cursor: pointer;" display="none"><path id="kity_path_116" fill="white" stroke="gray" d="M1816.5,83.5A6,6,0,1,1,1804.5,83.5A6,6,0,1,1,1816.5,83.5"></path><path id="kity_path_117" fill="none" stroke="gray"></path></g><path id="node_outline3" fill="none" stroke="none" d="M1821.5,72.5h415a5,5,0,0,1,5,5v12a5,5,0,0,1,-5,5h-415a5,5,0,0,1,-5,-5v-12a5,5,0,0,1,5,-5z" stroke-width="3"></path><g id="node_text3" fill="black"><text id="kity_text_65" text-rendering="inherit" font-size="12" dy=".8em" y="75.70000004768372" x="1826.5">教程第六步：忘记安装mysql-community-server-8.0.13-1.el7.x86_64.rpm</text></g></g><g id="minder_node7"><g id="node_expander3" style="cursor: pointer;" display="none"><path id="kity_path_119" fill="white" stroke="gray" d="M1816.5,144.5A6,6,0,1,1,1804.5,144.5A6,6,0,1,1,1816.5,144.5"></path><path id="kity_path_120" fill="none" stroke="gray"></path></g><path id="node_outline4" fill="none" stroke="none" d="M1821.5,124.5h396a5,5,0,0,1,5,5v30a5,5,0,0,1,-5,5h-396a5,5,0,0,1,-5,-5v-30a5,5,0,0,1,5,-5z" stroke-width="3"></path><g id="node_text4" fill="black"><text id="kity_text_67" text-rendering="inherit" font-size="12" dy=".8em" y="127.70000004768372" x="1826.5">第7步(登录mysql)无效，主要原因是mysql8.0版本登录机制改变。</text><text id="kity_text_68" text-rendering="inherit" font-size="12" dy=".8em" y="145.70000004768372" x="1826.5">需要再mysql日志文件中找到初始密码：日志路径(/var/log/mysqld.log)</text></g></g><g id="minder_node5"><g id="node_expander4" style="cursor: pointer;"><path id="kity_path_122" fill="white" stroke="gray" d="M1731.5,118.5A6,6,0,1,1,1719.5,118.5A6,6,0,1,1,1731.5,118.5"></path><path id="kity_path_123" fill="none" stroke="gray" d="M1721,118.5L1730,118.5"></path></g><path id="node_outline5" fill="none" stroke="none" d="M1736.5,107.5h35a5,5,0,0,1,5,5v12a5,5,0,0,1,-5,5h-35a5,5,0,0,1,-5,-5v-12a5,5,0,0,1,5,-5z" stroke-width="3"></path><g id="node_text5" fill="black"><text id="kity_text_70" text-rendering="inherit" font-size="12" dy=".8em" y="110.70000004768372" x="1741.5">缺陷</text></g></g><g id="minder_node3"><g id="node_expander5" style="cursor: pointer;"><path id="kity_path_125" fill="white" stroke="gray" d="M1621.5,74.5A6,6,0,1,1,1609.5,74.5A6,6,0,1,1,1621.5,74.5"></path><path id="kity_path_126" fill="none" stroke="gray" d="M1611,74.5L1620,74.5"></path></g><path id="node_outline6" fill="none" stroke="none" d="M1626.5,63.5h60a5,5,0,0,1,5,5v12a5,5,0,0,1,-5,5h-60a5,5,0,0,1,-5,-5v-12a5,5,0,0,1,5,-5z" stroke-width="3"></path><g id="node_text6" fill="black"><text id="kity_text_72" text-rendering="inherit" font-size="12" dy=".8em" y="66.70000004768372" x="1631.5">教程文章</text></g></g><g id="minder_node10"><g id="node_expander6" style="cursor: pointer;" display="none"><path id="kity_path_128" fill="white" stroke="gray" d="M2040.5,205.5A6,6,0,1,1,2028.5,205.5A6,6,0,1,1,2040.5,205.5"></path><path id="kity_path_129" fill="none" stroke="gray"></path></g><path id="node_outline7" fill="none" stroke="none" d="M2045.5,194.5h364a5,5,0,0,1,5,5v12a5,5,0,0,1,-5,5h-364a5,5,0,0,1,-5,-5v-12a5,5,0,0,1,5,-5z" stroke-width="3"></path><g id="node_text7" fill="black"><text id="kity_text_74" text-rendering="inherit" font-size="12" dy=".8em" y="197.70000004768372" x="2050.5">教程：https://blog.csdn.net/llf_cloud/article/details/83141338</text></g></g><g id="minder_node11"><g id="node_expander7" style="cursor: pointer;" display="none"><path id="kity_path_131" fill="white" stroke="gray" d="M2040.5,266.5A6,6,0,1,1,2028.5,266.5A6,6,0,1,1,2040.5,266.5"></path><path id="kity_path_132" fill="none" stroke="gray"></path></g><path id="node_outline8" fill="none" stroke="none" d="M2045.5,246.5h419a5,5,0,0,1,5,5v30a5,5,0,0,1,-5,5h-419a5,5,0,0,1,-5,-5v-30a5,5,0,0,1,5,-5z" stroke-width="3"></path><g id="node_text8" fill="black"><text id="kity_text_76" text-rendering="inherit" font-size="12" dy=".8em" y="249.70000004768372" x="2050.5">注意点：如果不设置阿里云安全组规则，那么依旧无法建立远程数据库链接。</text><text id="kity_text_77" text-rendering="inherit" font-size="12" dy=".8em" y="267.7000000476837" x="2050.5">安全组设置参考教程：https://www.cnblogs.com/ergexy/p/9718732.html</text></g></g><g id="minder_node9"><g id="node_expander8" style="cursor: pointer;"><path id="kity_path_134" fill="white" stroke="gray" d="M1873.5,240.5A6,6,0,1,1,1861.5,240.5A6,6,0,1,1,1873.5,240.5"></path><path id="kity_path_135" fill="none" stroke="gray" d="M1863,240.5L1872,240.5"></path></g><path id="node_outline9" fill="none" stroke="none" d="M1878.5,229.5h117a5,5,0,0,1,5,5v12a5,5,0,0,1,-5,5h-117a5,5,0,0,1,-5,-5v-12a5,5,0,0,1,5,-5z" stroke-width="3"></path><g id="node_text9" fill="black"><text id="kity_text_79" text-rendering="inherit" font-size="12" dy=".8em" y="232.70000004768372" x="1883.5">设置mysql远程链接</text></g></g><g id="minder_node12"><g id="node_expander9" style="cursor: pointer;" display="none"><path id="kity_path_137" fill="white" stroke="gray" d="M1873.5,327.5A6,6,0,1,1,1861.5,327.5A6,6,0,1,1,1873.5,327.5"></path><path id="kity_path_138" fill="none" stroke="gray"></path></g><path id="node_outline10" fill="none" stroke="none" d="M1878.5,316.5h71a5,5,0,0,1,5,5v12a5,5,0,0,1,-5,5h-71a5,5,0,0,1,-5,-5v-12a5,5,0,0,1,5,-5z" stroke-width="3"></path><g id="node_text10" fill="black"><text id="kity_text_81" text-rendering="inherit" font-size="12" dy=".8em" y="319.7000000476837" x="1883.5">导入数据库</text></g></g><g id="minder_node8"><g id="node_expander10" style="cursor: pointer;"><path id="kity_path_140" fill="white" stroke="gray" d="M1621.5,283.5A6,6,0,1,1,1609.5,283.5A6,6,0,1,1,1621.5,283.5"></path><path id="kity_path_141" fill="none" stroke="gray" d="M1611,283.5L1620,283.5"></path></g><path id="node_outline11" fill="none" stroke="none" d="M1626.5,272.5h202a5,5,0,0,1,5,5v12a5,5,0,0,1,-5,5h-202a5,5,0,0,1,-5,-5v-12a5,5,0,0,1,5,-5z" stroke-width="3"></path><g id="node_text11" fill="black"><text id="kity_text_83" text-rendering="inherit" font-size="12" dy=".8em" y="275.7000000476837" x="1631.5">选择自己的mysql数据库客户端软件</text></g></g><g id="minder_node18" opacity="1"><g id="node_expander17" style="cursor: pointer;"><path id="kity_path_166" fill="white" stroke="gray" d="M1623.5,457.5A6,6,0,1,1,1611.5,457.5A6,6,0,1,1,1623.5,457.5"></path><path id="kity_path_167" fill="none" stroke="gray" d="M1613,457.5L1622,457.5"></path></g><path id="node_outline18" fill="none" stroke="none" d="M1628.5,446.5h60a5,5,0,0,1,5,5v12a5,5,0,0,1,-5,5h-60a5,5,0,0,1,-5,-5v-12a5,5,0,0,1,5,-5z" stroke-width="3"></path><g id="node_text18" fill="black"><text id="kity_text_163" text-rendering="inherit" font-size="12" dy=".8em" y="449.7000000476837" x="1633.5">基础命令</text></g></g><g id="minder_node24" opacity="1"><g id="node_expander23" style="cursor: pointer;" display="none"><path id="kity_path_228" fill="white" stroke="gray" d="M1519.5,1452.5A6,6,0,1,1,1507.5,1452.5A6,6,0,1,1,1519.5,1452.5"></path><path id="kity_path_229" fill="none" stroke="gray"></path></g><path id="node_outline24" fill="none" stroke="none" d="M1524.5,1441.5h131a5,5,0,0,1,5,5v12a5,5,0,0,1,-5,5h-131a5,5,0,0,1,-5,-5v-12a5,5,0,0,1,5,-5z" stroke-width="3"></path><g id="node_text24" fill="black"><text id="kity_text_225" text-rendering="inherit" font-size="12" dy=".8em" y="1444.7000000476837" x="1529.5">安全组配置，放开端口</text></g></g><g id="minder_node19"><g id="node_expander18" style="cursor: pointer;" display="none"><path id="kity_path_174" fill="white" stroke="gray" d="M1733.5,405.5A6,6,0,1,1,1721.5,405.5A6,6,0,1,1,1733.5,405.5"></path><path id="kity_path_175" fill="none" stroke="gray"></path></g><path id="node_outline19" fill="none" stroke="none" d="M1738.5,394.5h217a5,5,0,0,1,5,5v12a5,5,0,0,1,-5,5h-217a5,5,0,0,1,-5,-5v-12a5,5,0,0,1,5,-5z" stroke-width="3"></path><g id="node_text19" fill="black"><text id="kity_text_171" text-rendering="inherit" font-size="12" dy=".8em" y="397.7000000476837" x="1743.5">mysql状态：systemctl status mysqld</text></g></g><g id="minder_node20"><g id="node_expander19" style="cursor: pointer;" display="none"><path id="kity_path_182" fill="white" stroke="gray" d="M1733.5,457.5A6,6,0,1,1,1721.5,457.5A6,6,0,1,1,1733.5,457.5"></path><path id="kity_path_183" fill="none" stroke="gray"></path></g><path id="node_outline20" fill="none" stroke="none" d="M1738.5,446.5h220a5,5,0,0,1,5,5v12a5,5,0,0,1,-5,5h-220a5,5,0,0,1,-5,-5v-12a5,5,0,0,1,5,-5z" stroke-width="3"></path><g id="node_text20" fill="black"><text id="kity_text_179" text-rendering="inherit" font-size="12" dy=".8em" y="449.7000000476837" x="1743.5">mysql重启：systemctl restart mysqld</text></g></g><g id="minder_node21"><g id="node_expander20" style="cursor: pointer;" display="none"><path id="kity_path_190" fill="white" stroke="gray" d="M1733.5,509.5A6,6,0,1,1,1721.5,509.5A6,6,0,1,1,1733.5,509.5"></path><path id="kity_path_191" fill="none" stroke="gray"></path></g><path id="node_outline21" fill="none" stroke="none" d="M1738.5,498.5h208a5,5,0,0,1,5,5v12a5,5,0,0,1,-5,5h-208a5,5,0,0,1,-5,-5v-12a5,5,0,0,1,5,-5z" stroke-width="3"></path><g id="node_text21" fill="black"><text id="kity_text_187" text-rendering="inherit" font-size="12" dy=".8em" y="501.7000000476837" x="1743.5">进入mysql：mysql -u用户名 -p密码</text></g></g><g id="minder_node64" opacity="1"><g id="node_expander63" style="cursor: pointer;" display="none"><path id="kity_path_596" fill="white" stroke="gray" d="M498.5,945.5A6,6,0,1,1,486.5,945.5A6,6,0,1,1,498.5,945.5"></path><path id="kity_path_597" fill="none" stroke="gray"></path></g><path id="node_outline64" fill="none" stroke="none" d="M146.5,934.5h335a5,5,0,0,1,5,5v12a5,5,0,0,1,-5,5h-335a5,5,0,0,1,-5,-5v-12a5,5,0,0,1,5,-5z" stroke-width="3"></path><g id="node_text64" fill="black"><text id="kity_text_593" text-rendering="inherit" font-size="12" dy=".8em" y="937.7000000476837" x="151.5">需要备案的，直接在阿里云上或者腾讯云之类的网站购买即可</text></g></g><g id="minder_node65" opacity="1"><g id="node_expander64" style="cursor: pointer;" display="none"><path id="kity_path_604" fill="white" stroke="gray" d="M498.5,997.5A6,6,0,1,1,486.5,997.5A6,6,0,1,1,498.5,997.5"></path><path id="kity_path_605" fill="none" stroke="gray"></path></g><path id="node_outline65" fill="none" stroke="none" d="M25.5,986.5h456a5,5,0,0,1,5,5v12a5,5,0,0,1,-5,5h-456a5,5,0,0,1,-5,-5v-12a5,5,0,0,1,5,-5z" stroke-width="3"></path><g id="node_text65" fill="black"><text id="kity_text_601" text-rendering="inherit" font-size="12" dy=".8em" y="989.7000000476837" x="30.5">备案情况需要依照具体需求来看，我在阿里云上由于遇到了流程的问题，导致很麻烦</text></g></g><g id="minder_node66" opacity="1"><g id="node_expander65" style="cursor: pointer;" display="none"><path id="kity_path_613" fill="white" stroke="gray" d="M520.5,751.5A6,6,0,1,1,508.5,751.5A6,6,0,1,1,520.5,751.5"></path><path id="kity_path_614" fill="none" stroke="gray"></path></g><path id="node_outline66" fill="none" stroke="none" d="M334.5,731.5h169a5,5,0,0,1,5,5v30a5,5,0,0,1,-5,5h-169a5,5,0,0,1,-5,-5v-30a5,5,0,0,1,5,-5z" stroke-width="3"></path><g id="node_text66" fill="black"><text id="kity_text_610" text-rendering="inherit" font-size="12" dy=".8em" y="734.7000000476837" x="339.5">打包上传到指定路径，</text><text id="kity_text_633" text-rendering="inherit" font-size="12" dy=".8em" y="752.7000000476837" x="339.5">再通过PM2开启进程守护即可</text></g></g></g></g></svg>