<svg id="kity_svg_6" xmlns="http://www.w3.org/2000/svg" xmlns:xlink="http://www.w3.org/1999/xlink" version="1.1" width="2268" height="1165" style="background: rgb(251, 251, 251); visibility: visible;" viewBox="0 0 2268 1165"><defs id="kity_defs_7"><linearGradient id="kity_linearGradient_17" x1="0" y1="0" x2="0" y2="1"><stop id="kity_stop_18" offset="0" stop-color="rgb(255, 255, 255)"></stop><stop id="kity_stop_19" offset="1" stop-color="rgb(204, 204, 204)"></stop></linearGradient><marker id="kity_marker_2" orient="auto" refX="6" refY="0" viewBox="-7 -7 14 14" markerWidth="7" markerHeight="7" markerUnits="userSpaceOnUse"><path id="kity_path_3" fill="rgb(115, 161, 191)" stroke="none" d="M6,0A6,6,0,1,1,-6,0A6,6,0,1,1,6,0"></path></marker></defs><g id="kity_g_8"><g id="minder1" text-rendering="optimize-speed"><g id="minder_connect_group1"><path id="kity_path_31" fill="none" stroke="rgb(115, 161, 191)" stroke-width="1" d="M958,415.5A357.5,382,0,0,1,1315.5,33.5"></path><path id="kity_path_33" fill="none" stroke="rgb(115, 161, 191)" stroke-width="1" d="M1525.5,-81.5C1540.5,-81.5,1540.5,-245.5,1555.5,-245.5L1635.5,-245.5" display="none"></path><path id="kity_path_35" fill="none" stroke="rgb(115, 161, 191)" stroke-width="1" d="M1635.5,-245.5C1650.5,-245.5,1650.5,-288.5,1665.5,-288.5L1909.5,-288.5" display="none"></path><path id="kity_path_37" fill="none" stroke="rgb(115, 161, 191)" stroke-width="1" d="M1635.5,-245.5C1650.5,-245.5,1650.5,-201.5,1665.5,-201.5L1720.5,-201.5" display="none"></path><path id="kity_path_39" fill="none" stroke="rgb(115, 161, 191)" stroke-width="1" d="M1720.5,-201.5C1735.5,-201.5,1735.5,-236.5,1750.5,-236.5L2185.5,-236.5" display="none"></path><path id="kity_path_41" fill="none" stroke="rgb(115, 161, 191)" stroke-width="1" d="M1720.5,-201.5C1735.5,-201.5,1735.5,-166.5,1750.5,-166.5L2166.5,-166.5" display="none"></path><path id="kity_path_43" fill="none" stroke="rgb(115, 161, 191)" stroke-width="1" d="M1525.5,-81.5C1540.5,-81.5,1540.5,-36.5,1555.5,-36.5L1777.5,-36.5" display="none"></path><path id="kity_path_45" fill="none" stroke="rgb(115, 161, 191)" stroke-width="1" d="M1777.5,-36.5C1792.5,-36.5,1792.5,-79.5,1807.5,-79.5L1944.5,-79.5" display="none"></path><path id="kity_path_47" fill="none" stroke="rgb(115, 161, 191)" stroke-width="1" d="M1944.5,-79.5C1959.5,-79.5,1959.5,-114.5,1974.5,-114.5L2358.5,-114.5" display="none"></path><path id="kity_path_49" fill="none" stroke="rgb(115, 161, 191)" stroke-width="1" d="M1944.5,-79.5C1959.5,-79.5,1959.5,-44.5,1974.5,-44.5L2413.5,-44.5" display="none"></path><path id="kity_path_51" fill="none" stroke="rgb(115, 161, 191)" stroke-width="1" d="M1777.5,-36.5C1792.5,-36.5,1792.5,7.5,1807.5,7.5L1898.5,7.5" display="none"></path><path id="kity_path_53" fill="none" stroke="rgb(115, 161, 191)" stroke-width="1" d="M1525.5,-81.5C1541.5,-81.5,1541.5,137.5,1557.5,137.5L1637.5,137.5" display="none"></path><path id="kity_path_55" fill="none" stroke="rgb(115, 161, 191)" stroke-width="1" d="M1637.5,137.5C1652.5,137.5,1652.5,85.5,1667.5,85.5L1904.5,85.5" display="none"></path><path id="kity_path_57" fill="none" stroke="rgb(115, 161, 191)" stroke-width="1" d="M1637.5,137.5C1652.5,137.5,1652.5,137.5,1667.5,137.5L1907.5,137.5" display="none"></path><path id="kity_path_59" fill="none" stroke="rgb(115, 161, 191)" stroke-width="1" d="M1637.5,137.5C1652.5,137.5,1652.5,189.5,1667.5,189.5L1895.5,189.5" display="none"></path><path id="kity_path_61" fill="none" stroke="rgb(115, 161, 191)" stroke-width="1" d="M958,415.5A296.5,0,0,0,1,1254.5,415.5"></path><path id="kity_path_63" fill="none" stroke="rgb(115, 161, 191)" stroke-width="1" d="M1404.5,415.5C1427,415.5,1427,268.5,1449.5,268.5L1841.5,268.5"></path><path id="kity_path_65" fill="none" stroke="rgb(115, 161, 191)" stroke-width="1" d="M1404.5,415.5C1419.5,415.5,1419.5,540.5,1434.5,540.5L1514.5,540.5"></path><path id="kity_path_67" fill="none" stroke="rgb(115, 161, 191)" stroke-width="1" d="M1514.5,540.5C1529.5,540.5,1529.5,406.5,1544.5,406.5L1881.5,406.5"></path><path id="kity_path_69" fill="none" stroke="rgb(115, 161, 191)" stroke-width="1" d="M1514.5,540.5C1529.5,540.5,1529.5,458.5,1544.5,458.5L1996.5,458.5"></path><path id="kity_path_71" fill="none" stroke="rgb(115, 161, 191)" stroke-width="1" d="M1514.5,540.5C1529.5,540.5,1529.5,692.5,1544.5,692.5L1680.5,692.5"></path><path id="kity_path_73" fill="none" stroke="rgb(115, 161, 191)" stroke-width="1" d="M1680.5,692.5C1719,692.5,1719,572.5,1757.5,572.5L1854.5,572.5"></path><path id="kity_path_75" fill="none" stroke="rgb(115, 161, 191)" stroke-width="1" d="M1854.5,572.5C1884,572.5,1884,640.5,1913.5,640.5L2248.5,640.5"></path><path id="kity_path_77" fill="none" stroke="rgb(115, 161, 191)" stroke-width="1" d="M1680.5,692.5C1710.5,692.5,1710.5,832.5,1740.5,832.5L1868.5,832.5"></path><path id="kity_path_79" fill="none" stroke="rgb(115, 161, 191)" stroke-width="1" d="M1868.5,832.5C1883.5,832.5,1883.5,868.5,1898.5,868.5L2091.5,868.5"></path><path id="kity_path_81" fill="none" stroke="rgb(115, 161, 191)" stroke-width="1" d="M1680.5,692.5C1698.5,692.5,1698.5,718.5,1716.5,718.5L1907.5,718.5"></path><path id="kity_path_83" fill="none" stroke="rgb(115, 161, 191)" stroke-width="1" d="M1907.5,718.5C1922.5,718.5,1922.5,745.5,1937.5,745.5L2140.5,745.5"></path><path id="kity_path_85" fill="none" stroke="rgb(115, 161, 191)" stroke-width="1" d="M1680.5,692.5C1694.5,692.5,1694.5,945.5,1708.5,945.5L2021.5,945.5"></path><path id="kity_path_87" fill="none" stroke="rgb(115, 161, 191)" stroke-width="1" d="M958,415.5A328.5,112,0,0,0,629.5,303.5"></path><path id="kity_path_89" fill="none" stroke="rgb(115, 161, 191)" stroke-width="1" d="M501.5,303.5C482,303.5,482,326.5,462.5,326.5L273.5,326.5"></path><path id="kity_path_91" fill="none" stroke="rgb(115, 161, 191)" stroke-width="1" d="M958,415.5A347.5,717,0,0,0,1305.5,1132.5"></path><path id="kity_path_93" fill="none" stroke="rgb(115, 161, 191)" stroke-width="1" d="M1418.5,1132.5C1436,1132.5,1436,1132.5,1453.5,1132.5L1604.5,1132.5"></path><path id="kity_path_95" fill="none" stroke="rgb(115, 161, 191)" stroke-width="1" d="M958,415.5A289.5,197,0,0,0,668.5,218.5"></path><path id="kity_path_97" fill="none" stroke="rgb(115, 161, 191)" stroke-width="1" d="M541.5,218.5C526.5,218.5,526.5,232.5,511.5,232.5L348.5,232.5"></path><path id="kity_path_99" fill="none" stroke="rgb(115, 161, 191)" stroke-width="1" d="M958,415.5A275.5,222,0,0,1,682.5,637.5"></path><path id="kity_path_101" fill="none" stroke="rgb(115, 161, 191)" stroke-width="1" d="M526.5,637.5C511.5,637.5,511.5,625.5,496.5,625.5L141.5,625.5"></path><path id="kity_path_103" fill="none" stroke="rgb(115, 161, 191)" stroke-width="1" d="M526.5,637.5C511.5,637.5,511.5,677.5,496.5,677.5L20.5,677.5"></path></g><g id="minder_node1"><path id="node_outline1" fill="rgb(115, 161, 191)" stroke="rgb(115, 161, 191)" d="M807.5,395.5h301a5,5,0,0,1,5,5v30a5,5,0,0,1,-5,5h-301a5,5,0,0,1,-5,-5v-30a5,5,0,0,1,5,-5z" stroke-width="3"></path><g id="node_text1" fill="white"><text id="kity_text_22" text-rendering="inherit" font-size="16" dy=".8em" y="405.09999990463257" x="826.5">阿里云node项目部署（基础备忘录）</text></g></g><g id="kity_g_12"><path id="kity_path_13" fill="none" stroke="none" d="M826.5,415.5h0v0h0z"></path></g><g id="kity_g_14"><path id="kity_path_15" fill="none" stroke="none" d="M826.5,415.5h0v0h0z"></path><path id="kity_path_16" fill="none" stroke="none"></path></g><g id="minder_node2"><g id="node_expander15" style="cursor: pointer;"><path id="kity_path_273" fill="white" stroke="gray" d="M1316.5,33.5A6,6,0,1,1,1304.5,33.5A6,6,0,1,1,1316.5,33.5"></path><path id="kity_path_274" fill="none" stroke="gray" d="M1306,33.5L1315,33.5M1310.5,29L1310.5,38"></path></g><path id="node_outline16" fill="rgb(238, 243, 246)" stroke="rgb(115, 161, 191)" d="M1320.5,20.5h202a3,3,0,0,1,3,3v20a3,3,0,0,1,-3,3h-202a3,3,0,0,1,-3,-3v-20a3,3,0,0,1,3,-3z" stroke-width="1"></path><g id="node_text16" fill="black"><text id="kity_text_135" text-rendering="inherit" font-size="14" dy=".8em" y="24.40000009536743" x="1337.5">mysql(8.0版本)数据库部署</text></g></g><g id="minder_node3" display="none"><g id="node_expander5" style="cursor: pointer;" display="none"><path id="kity_path_243" fill="white" stroke="gray" d="M1565.5,-26.5A6,6,0,1,1,1553.5,-26.5A6,6,0,1,1,1565.5,-26.5"></path><path id="kity_path_244" fill="none" stroke="gray" d="M1555,-26.5L1564,-26.5"></path></g><path id="node_outline6" fill="none" stroke="none" d="M1560.5,-37.5h60a5,5,0,0,1,5,5v12a5,5,0,0,1,-5,5h-60a5,5,0,0,1,-5,-5v-12a5,5,0,0,1,5,-5z"></path><g id="node_text6" fill="black"><text id="kity_text_114" text-rendering="inherit" font-size="12" dy=".8em" y="-34.299999952316284" x="1565.5">教程文章</text></g></g><g id="minder_node4" display="none"><g id="node_expander1" style="cursor: pointer;" display="none"><path id="kity_path_231" fill="white" stroke="gray" d="M1605.5,-56.5A6,6,0,1,1,1593.5,-56.5A6,6,0,1,1,1605.5,-56.5"></path><path id="kity_path_232" fill="none" stroke="gray"></path></g><path id="node_outline2" fill="none" stroke="none" d="M1600.5,-67.5h224a5,5,0,0,1,5,5v12a5,5,0,0,1,-5,5h-224a5,5,0,0,1,-5,-5v-12a5,5,0,0,1,5,-5z"></path><g id="node_text2" fill="black"><text id="kity_text_105" text-rendering="inherit" font-size="12" dy=".8em" y="-64.29999995231628" x="1605.5">https://yq.aliyun.com/articles/676680</text></g></g><g id="minder_node5" display="none"><g id="node_expander4" style="cursor: pointer;" display="none"><path id="kity_path_240" fill="white" stroke="gray" d="M1605.5,-26.5A6,6,0,1,1,1593.5,-26.5A6,6,0,1,1,1605.5,-26.5"></path><path id="kity_path_241" fill="none" stroke="gray" d="M1595,-26.5L1604,-26.5"></path></g><path id="node_outline5" fill="none" stroke="none" d="M1600.5,-37.5h35a5,5,0,0,1,5,5v12a5,5,0,0,1,-5,5h-35a5,5,0,0,1,-5,-5v-12a5,5,0,0,1,5,-5z"></path><g id="node_text5" fill="black"><text id="kity_text_112" text-rendering="inherit" font-size="12" dy=".8em" y="-34.299999952316284" x="1605.5">缺陷</text></g></g><g id="minder_node6" display="none"><g id="node_expander2" style="cursor: pointer;" display="none"><path id="kity_path_234" fill="white" stroke="gray" d="M1645.5,-56.5A6,6,0,1,1,1633.5,-56.5A6,6,0,1,1,1645.5,-56.5"></path><path id="kity_path_235" fill="none" stroke="gray"></path></g><path id="node_outline3" fill="none" stroke="none" d="M1640.5,-67.5h415a5,5,0,0,1,5,5v12a5,5,0,0,1,-5,5h-415a5,5,0,0,1,-5,-5v-12a5,5,0,0,1,5,-5z" stroke-width="3"></path><g id="node_text3" fill="black"><text id="kity_text_107" text-rendering="inherit" font-size="12" dy=".8em" y="-64.29999995231628" x="1645.5">教程第六步：忘记安装mysql-community-server-8.0.13-1.el7.x86_64.rpm</text></g></g><g id="minder_node7" display="none"><g id="node_expander3" style="cursor: pointer;" display="none"><path id="kity_path_237" fill="white" stroke="gray" d="M1645.5,-26.5A6,6,0,1,1,1633.5,-26.5A6,6,0,1,1,1645.5,-26.5"></path><path id="kity_path_238" fill="none" stroke="gray"></path></g><path id="node_outline4" fill="none" stroke="none" d="M1640.5,-46.5h396a5,5,0,0,1,5,5v30a5,5,0,0,1,-5,5h-396a5,5,0,0,1,-5,-5v-30a5,5,0,0,1,5,-5z"></path><g id="node_text4" fill="black"><text id="kity_text_109" text-rendering="inherit" font-size="12" dy=".8em" y="-43.299999952316284" x="1645.5">第7步(登录mysql)无效，主要原因是mysql8.0版本登录机制改变。</text><text id="kity_text_110" text-rendering="inherit" font-size="12" dy=".8em" y="-25.299999952316284" x="1645.5">需要再mysql日志文件中找到初始密码：日志路径(/var/log/mysqld.log)</text></g></g><g id="minder_node8" display="none"><g id="node_expander10" style="cursor: pointer;" display="none"><path id="kity_path_258" fill="white" stroke="gray" d="M1565.5,3.5A6,6,0,1,1,1553.5,3.5A6,6,0,1,1,1565.5,3.5"></path><path id="kity_path_259" fill="none" stroke="gray" d="M1555,3.5L1564,3.5"></path></g><path id="node_outline11" fill="none" stroke="none" d="M1560.5,-7.5h202a5,5,0,0,1,5,5v12a5,5,0,0,1,-5,5h-202a5,5,0,0,1,-5,-5v-12a5,5,0,0,1,5,-5z"></path><g id="node_text11" fill="black"><text id="kity_text_125" text-rendering="inherit" font-size="12" dy=".8em" y="-4.299999952316284" x="1565.5">选择自己的mysql数据库客户端软件</text></g></g><g id="minder_node9" display="none"><g id="node_expander8" style="cursor: pointer;" display="none"><path id="kity_path_252" fill="white" stroke="gray" d="M1605.5,-26.5A6,6,0,1,1,1593.5,-26.5A6,6,0,1,1,1605.5,-26.5"></path><path id="kity_path_253" fill="none" stroke="gray" d="M1595,-26.5L1604,-26.5"></path></g><path id="node_outline9" fill="none" stroke="none" d="M1600.5,-37.5h117a5,5,0,0,1,5,5v12a5,5,0,0,1,-5,5h-117a5,5,0,0,1,-5,-5v-12a5,5,0,0,1,5,-5z"></path><g id="node_text9" fill="black"><text id="kity_text_121" text-rendering="inherit" font-size="12" dy=".8em" y="-34.299999952316284" x="1605.5">设置mysql远程链接</text></g></g><g id="minder_node10" display="none"><g id="node_expander6" style="cursor: pointer;" display="none"><path id="kity_path_246" fill="white" stroke="gray" d="M1645.5,-56.5A6,6,0,1,1,1633.5,-56.5A6,6,0,1,1,1645.5,-56.5"></path><path id="kity_path_247" fill="none" stroke="gray"></path></g><path id="node_outline7" fill="none" stroke="none" d="M1640.5,-67.5h364a5,5,0,0,1,5,5v12a5,5,0,0,1,-5,5h-364a5,5,0,0,1,-5,-5v-12a5,5,0,0,1,5,-5z"></path><g id="node_text7" fill="black"><text id="kity_text_116" text-rendering="inherit" font-size="12" dy=".8em" y="-64.29999995231628" x="1645.5">教程：https://blog.csdn.net/llf_cloud/article/details/83141338</text></g></g><g id="minder_node11" display="none"><g id="node_expander7" style="cursor: pointer;" display="none"><path id="kity_path_249" fill="white" stroke="gray" d="M1645.5,-26.5A6,6,0,1,1,1633.5,-26.5A6,6,0,1,1,1645.5,-26.5"></path><path id="kity_path_250" fill="none" stroke="gray"></path></g><path id="node_outline8" fill="none" stroke="none" d="M1640.5,-46.5h419a5,5,0,0,1,5,5v30a5,5,0,0,1,-5,5h-419a5,5,0,0,1,-5,-5v-30a5,5,0,0,1,5,-5z"></path><g id="node_text8" fill="black"><text id="kity_text_118" text-rendering="inherit" font-size="12" dy=".8em" y="-43.299999952316284" x="1645.5">注意点：如果不设置阿里云安全组规则，那么依旧无法建立远程数据库链接。</text><text id="kity_text_119" text-rendering="inherit" font-size="12" dy=".8em" y="-25.299999952316284" x="1645.5">安全组设置参考教程：https://www.cnblogs.com/ergexy/p/9718732.html</text></g></g><g id="minder_node12" display="none"><g id="node_expander9" style="cursor: pointer;" display="none"><path id="kity_path_255" fill="white" stroke="gray" d="M1605.5,3.5A6,6,0,1,1,1593.5,3.5A6,6,0,1,1,1605.5,3.5"></path><path id="kity_path_256" fill="none" stroke="gray"></path></g><path id="node_outline10" fill="none" stroke="none" d="M1600.5,-7.5h71a5,5,0,0,1,5,5v12a5,5,0,0,1,-5,5h-71a5,5,0,0,1,-5,-5v-12a5,5,0,0,1,5,-5z"></path><g id="node_text10" fill="black"><text id="kity_text_123" text-rendering="inherit" font-size="12" dy=".8em" y="-4.299999952316284" x="1605.5">导入数据库</text></g></g><g id="minder_node13" display="none"><g id="node_expander14" style="cursor: pointer;" display="none"><path id="kity_path_270" fill="white" stroke="gray" d="M1567.5,60.5A6,6,0,1,1,1555.5,60.5A6,6,0,1,1,1567.5,60.5"></path><path id="kity_path_271" fill="none" stroke="gray" d="M1557,60.5L1566,60.5"></path></g><path id="node_outline15" fill="none" stroke="none" d="M1562.5,49.5h60a5,5,0,0,1,5,5v12a5,5,0,0,1,-5,5h-60a5,5,0,0,1,-5,-5v-12a5,5,0,0,1,5,-5z"></path><g id="node_text15" fill="black"><text id="kity_text_133" text-rendering="inherit" font-size="12" dy=".8em" y="52.700000047683716" x="1567.5">基础命令</text></g></g><g id="minder_node14" display="none"><g id="node_expander11" style="cursor: pointer;" display="none"><path id="kity_path_261" fill="white" stroke="gray" d="M1607.5,0.5A6,6,0,1,1,1595.5,0.5A6,6,0,1,1,1607.5,0.5"></path><path id="kity_path_262" fill="none" stroke="gray"></path></g><path id="node_outline12" fill="none" stroke="none" d="M1602.5,-10.5h217a5,5,0,0,1,5,5v12a5,5,0,0,1,-5,5h-217a5,5,0,0,1,-5,-5v-12a5,5,0,0,1,5,-5z"></path><g id="node_text12" fill="black"><text id="kity_text_127" text-rendering="inherit" font-size="12" dy=".8em" y="-7.299999952316284" x="1607.5">mysql状态：systemctl status mysqld</text></g></g><g id="minder_node15" display="none"><g id="node_expander12" style="cursor: pointer;" display="none"><path id="kity_path_264" fill="white" stroke="gray" d="M1607.5,30.5A6,6,0,1,1,1595.5,30.5A6,6,0,1,1,1607.5,30.5"></path><path id="kity_path_265" fill="none" stroke="gray"></path></g><path id="node_outline13" fill="none" stroke="none" d="M1602.5,19.5h220a5,5,0,0,1,5,5v12a5,5,0,0,1,-5,5h-220a5,5,0,0,1,-5,-5v-12a5,5,0,0,1,5,-5z"></path><g id="node_text13" fill="black"><text id="kity_text_129" text-rendering="inherit" font-size="12" dy=".8em" y="22.700000047683716" x="1607.5">mysql重启：systemctl restart mysqld</text></g></g><g id="minder_node16" display="none"><g id="node_expander13" style="cursor: pointer;" display="none"><path id="kity_path_267" fill="white" stroke="gray" d="M1607.5,60.5A6,6,0,1,1,1595.5,60.5A6,6,0,1,1,1607.5,60.5"></path><path id="kity_path_268" fill="none" stroke="gray"></path></g><path id="node_outline14" fill="none" stroke="none" d="M1602.5,49.5h208a5,5,0,0,1,5,5v12a5,5,0,0,1,-5,5h-208a5,5,0,0,1,-5,-5v-12a5,5,0,0,1,5,-5z"></path><g id="node_text14" fill="black"><text id="kity_text_131" text-rendering="inherit" font-size="12" dy=".8em" y="52.700000047683716" x="1607.5">进入mysql：mysql -u用户名 -p密码</text></g></g><g id="minder_node17"><g id="node_expander28" style="cursor: pointer;"><path id="kity_path_312" fill="white" stroke="gray" d="M1255.5,415.5A6,6,0,1,1,1243.5,415.5A6,6,0,1,1,1255.5,415.5"></path><path id="kity_path_313" fill="none" stroke="gray" d="M1245,415.5L1254,415.5"></path></g><path id="node_outline29" fill="rgb(238, 243, 246)" stroke="rgb(115, 161, 191)" d="M1259.5,402.5h142a3,3,0,0,1,3,3v20a3,3,0,0,1,-3,3h-142a3,3,0,0,1,-3,-3v-20a3,3,0,0,1,3,-3z" stroke-width="1"></path><g id="node_text29" fill="black"><text id="kity_text_173" text-rendering="inherit" font-size="14" dy=".8em" y="406.40000009536743" x="1276.5">nginx服务器配置</text></g></g><g id="minder_node18"><g id="node_expander16" style="cursor: pointer;" display="none"><path id="kity_path_276" fill="white" stroke="gray" d="M1459.5,245.5A6,6,0,1,1,1447.5,245.5A6,6,0,1,1,1459.5,245.5"></path><path id="kity_path_277" fill="none" stroke="gray"></path></g><path id="node_outline17" fill="none" stroke="none" d="M1464.5,225.5h372a5,5,0,0,1,5,5v30a5,5,0,0,1,-5,5h-372a5,5,0,0,1,-5,-5v-30a5,5,0,0,1,5,-5z" stroke-width="3"></path><g id="node_text17" fill="black"><text id="kity_text_137" text-rendering="inherit" font-size="12" dy=".8em" y="228.70000004768372" x="1469.5">教程：阿里云ECS服务器部署Node.js项目全过程详解</text><text id="kity_text_138" text-rendering="inherit" font-size="12" dy=".8em" y="246.70000004768372" x="1469.5">https://juejin.im/post/5ba4b0175188255c82551090#heading-2</text></g></g><g id="minder_node19"><g id="node_expander27" style="cursor: pointer;"><path id="kity_path_309" fill="white" stroke="gray" d="M1444.5,526.5A6,6,0,1,1,1432.5,526.5A6,6,0,1,1,1444.5,526.5"></path><path id="kity_path_310" fill="none" stroke="gray" d="M1434,526.5L1443,526.5"></path></g><path id="node_outline28" fill="none" stroke="none" d="M1449.5,515.5h60a5,5,0,0,1,5,5v12a5,5,0,0,1,-5,5h-60a5,5,0,0,1,-5,-5v-12a5,5,0,0,1,5,-5z"></path><g id="node_text28" fill="black"><text id="kity_text_171" text-rendering="inherit" font-size="12" dy=".8em" y="518.7000000476837" x="1454.5">教程补充</text></g></g><g id="minder_node20"><g id="node_expander17" style="cursor: pointer;" display="none"><path id="kity_path_279" fill="white" stroke="gray" d="M1554.5,383.5A6,6,0,1,1,1542.5,383.5A6,6,0,1,1,1554.5,383.5"></path><path id="kity_path_280" fill="none" stroke="gray"></path></g><path id="node_outline18" fill="none" stroke="none" d="M1559.5,363.5h317a5,5,0,0,1,5,5v30a5,5,0,0,1,-5,5h-317a5,5,0,0,1,-5,-5v-30a5,5,0,0,1,5,-5z"></path><g id="node_text18" fill="black"><text id="kity_text_140" text-rendering="inherit" font-size="12" dy=".8em" y="366.7000000476837" x="1564.5">1.sites-enabled-server中新增文件，是不能有文件后缀的</text><text id="kity_text_141" text-rendering="inherit" font-size="12" dy=".8em" y="384.7000000476837" x="1564.5">例如default文件，而不是default.txt</text></g></g><g id="minder_node21"><g id="node_expander18" style="cursor: pointer;" display="none"><path id="kity_path_282" fill="white" stroke="gray" d="M1554.5,444.5A6,6,0,1,1,1542.5,444.5A6,6,0,1,1,1554.5,444.5"></path><path id="kity_path_283" fill="none" stroke="gray"></path></g><path id="node_outline19" fill="none" stroke="rgb(57, 80, 96)" d="M1559.5,433.5h432a5,5,0,0,1,5,5v12a5,5,0,0,1,-5,5h-432a5,5,0,0,1,-5,-5v-12a5,5,0,0,1,5,-5z" stroke-width="3"></path><g id="node_text19" fill="black"><text id="kity_text_143" text-rendering="inherit" font-size="12" dy=".8em" y="436.7000000476837" x="1564.5">2.安装node 推荐教程 https://help.aliyun.com/document_detail/50775.html</text></g></g><g id="minder_node22"><g id="node_expander26" style="cursor: pointer;"><path id="kity_path_306" fill="white" stroke="gray" d="M1554.5,678.5A6,6,0,1,1,1542.5,678.5A6,6,0,1,1,1554.5,678.5"></path><path id="kity_path_307" fill="none" stroke="gray" d="M1544,678.5L1553,678.5"></path></g><path id="node_outline27" fill="none" stroke="none" d="M1559.5,667.5h116a5,5,0,0,1,5,5v12a5,5,0,0,1,-5,5h-116a5,5,0,0,1,-5,-5v-12a5,5,0,0,1,5,-5z"></path><g id="node_text27" fill="black"><text id="kity_text_169" text-rendering="inherit" font-size="12" dy=".8em" y="670.7000000476837" x="1564.5">3.项目是单文件项目</text></g></g><g id="minder_node23"><g id="node_expander20" style="cursor: pointer;"><path id="kity_path_288" fill="white" stroke="gray" d="M1767.5,558.5A6,6,0,1,1,1755.5,558.5A6,6,0,1,1,1767.5,558.5"></path><path id="kity_path_289" fill="none" stroke="gray" d="M1757,558.5L1766,558.5"></path></g><path id="node_outline21" fill="none" stroke="none" d="M1772.5,547.5h77a5,5,0,0,1,5,5v12a5,5,0,0,1,-5,5h-77a5,5,0,0,1,-5,-5v-12a5,5,0,0,1,5,-5z"></path><g id="node_text21" fill="black"><text id="kity_text_150" text-rendering="inherit" font-size="12" dy=".8em" y="550.7000000476837" x="1777.5">api反向代理</text></g></g><g id="minder_node24"><g id="node_expander19" style="cursor: pointer;" display="none"><path id="kity_path_285" fill="white" stroke="gray" d="M1923.5,599.5A6,6,0,1,1,1911.5,599.5A6,6,0,1,1,1923.5,599.5"></path><path id="kity_path_286" fill="none" stroke="gray"></path></g><path id="node_outline20" fill="none" stroke="none" d="M1928.5,561.5h315a5,5,0,0,1,5,5v66a5,5,0,0,1,-5,5h-315a5,5,0,0,1,-5,-5v-66a5,5,0,0,1,5,-5z"></path><g id="node_text20" fill="black"><text id="kity_text_145" text-rendering="inherit" font-size="12" dy=".8em" y="564.7000000476837" x="1933.5">set $node_port 8360;&#xa0; &#xa0;//设置node端口</text><text id="kity_text_146" text-rendering="inherit" font-size="12" dy=".8em" y="582.7000000476837" x="1933.5">location ~ ^/api/ {	&#xa0; &#xa0;</text><text id="kity_text_147" text-rendering="inherit" font-size="12" dy=".8em" y="600.7000000476837" x="1933.5">&#xa0; proxy_pass http://127.0.0.1:$node_port$request_uri;</text><text id="kity_text_148" text-rendering="inherit" font-size="12" dy=".8em" y="618.7000000476837" x="1933.5">&#xa0;}</text></g></g><g id="minder_node25"><g id="node_expander22" style="cursor: pointer;"><path id="kity_path_294" fill="white" stroke="gray" d="M1750.5,818.5A6,6,0,1,1,1738.5,818.5A6,6,0,1,1,1750.5,818.5"></path><path id="kity_path_295" fill="none" stroke="gray" d="M1740,818.5L1749,818.5"></path></g><path id="node_outline23" fill="none" stroke="none" d="M1755.5,807.5h108a5,5,0,0,1,5,5v12a5,5,0,0,1,-5,5h-108a5,5,0,0,1,-5,-5v-12a5,5,0,0,1,5,-5z"></path><g id="node_text23" fill="black"><text id="kity_text_158" text-rendering="inherit" font-size="12" dy=".8em" y="810.7000000476837" x="1760.5">解决静态资源问题</text></g></g><g id="minder_node26"><g id="node_expander21" style="cursor: pointer;" display="none"><path id="kity_path_291" fill="white" stroke="gray" d="M1908.5,818.5A6,6,0,1,1,1896.5,818.5A6,6,0,1,1,1908.5,818.5"></path><path id="kity_path_292" fill="none" stroke="gray"></path></g><path id="node_outline22" fill="none" stroke="none" d="M1913.5,771.5h173a5,5,0,0,1,5,5v84a5,5,0,0,1,-5,5h-173a5,5,0,0,1,-5,-5v-84a5,5,0,0,1,5,-5z"></path><g id="node_text22" fill="black"><text id="kity_text_152" text-rendering="inherit" font-size="12" dy=".8em" y="774.7000000476837" x="1918.5">location ~ ^/静态资源api {	&#xa0; &#xa0;</text><text id="kity_text_153" text-rendering="inherit" font-size="12" dy=".8em" y="792.7000000476837" x="1918.5">&#xa0;root 静态资源目录;</text><text id="kity_text_154" text-rendering="inherit" font-size="12" dy=".8em" y="810.7000000476837" x="1918.5">&#xa0;etag&#xa0; &#xa0; &#xa0; &#xa0; &#xa0;on;</text><text id="kity_text_155" text-rendering="inherit" font-size="12" dy=".8em" y="828.7000000476837" x="1918.5">&#xa0;expires&#xa0; &#xa0; &#xa0; max;	</text><text id="kity_text_156" text-rendering="inherit" font-size="12" dy=".8em" y="846.7000000476837" x="1918.5">}</text></g></g><g id="minder_node27"><g id="node_expander24" style="cursor: pointer;"><path id="kity_path_300" fill="white" stroke="gray" d="M1726.5,704.5A6,6,0,1,1,1714.5,704.5A6,6,0,1,1,1726.5,704.5"></path><path id="kity_path_301" fill="none" stroke="gray" d="M1716,704.5L1725,704.5"></path></g><path id="node_outline25" fill="none" stroke="none" d="M1731.5,693.5h171a5,5,0,0,1,5,5v12a5,5,0,0,1,-5,5h-171a5,5,0,0,1,-5,-5v-12a5,5,0,0,1,5,-5z"></path><g id="node_text25" fill="black"><text id="kity_text_165" text-rendering="inherit" font-size="12" dy=".8em" y="696.7000000476837" x="1736.5">解决history模式下的路由转发</text></g></g><g id="minder_node28"><g id="node_expander23" style="cursor: pointer;" display="none"><path id="kity_path_297" fill="white" stroke="gray" d="M1947.5,704.5A6,6,0,1,1,1935.5,704.5A6,6,0,1,1,1947.5,704.5"></path><path id="kity_path_298" fill="none" stroke="gray"></path></g><path id="node_outline24" fill="none" stroke="none" d="M1952.5,666.5h183a5,5,0,0,1,5,5v66a5,5,0,0,1,-5,5h-183a5,5,0,0,1,-5,-5v-66a5,5,0,0,1,5,-5z"></path><g id="node_text24" fill="black"><text id="kity_text_160" text-rendering="inherit" font-size="12" dy=".8em" y="669.7000000476837" x="1957.5">location / {		</text><text id="kity_text_161" text-rendering="inherit" font-size="12" dy=".8em" y="687.7000000476837" x="1957.5">root 项目目录;</text><text id="kity_text_162" text-rendering="inherit" font-size="12" dy=".8em" y="705.7000000476837" x="1957.5">		try_files $uri $uri/ /index.html;</text><text id="kity_text_163" text-rendering="inherit" font-size="12" dy=".8em" y="723.7000000476837" x="1957.5">	}</text></g></g><g id="minder_node29"><g id="node_expander25" style="cursor: pointer;" display="none"><path id="kity_path_303" fill="white" stroke="gray" d="M1718.5,931.5A6,6,0,1,1,1706.5,931.5A6,6,0,1,1,1718.5,931.5"></path><path id="kity_path_304" fill="none" stroke="gray"></path></g><path id="node_outline26" fill="none" stroke="none" d="M1723.5,920.5h293a5,5,0,0,1,5,5v12a5,5,0,0,1,-5,5h-293a5,5,0,0,1,-5,-5v-12a5,5,0,0,1,5,-5z"></path><g id="node_text26" fill="black"><text id="kity_text_167" text-rendering="inherit" font-size="12" dy=".8em" y="923.7000000476837" x="1728.5">注意api反向代理需要放在最上面，因为路由匹配规则</text></g></g><g id="minder_node30"><g id="node_expander30" style="cursor: pointer;"><path id="kity_path_318" fill="white" stroke="gray" d="M500.5,303.5A6,6,0,1,1,488.5,303.5A6,6,0,1,1,500.5,303.5"></path><path id="kity_path_319" fill="none" stroke="gray" d="M490,303.5L499,303.5"></path></g><path id="node_outline31" fill="rgb(238, 243, 246)" stroke="rgb(115, 161, 191)" d="M504.5,290.5h120a3,3,0,0,1,3,3v20a3,3,0,0,1,-3,3h-120a3,3,0,0,1,-3,-3v-20a3,3,0,0,1,3,-3z" stroke-width="1"></path><g id="node_text31" fill="black"><text id="kity_text_178" text-rendering="inherit" font-size="14" dy=".8em" y="294.40000009536743" x="521.5">后端代码部署</text></g></g><g id="minder_node31"><g id="node_expander29" style="cursor: pointer;" display="none"><path id="kity_path_315" fill="white" stroke="gray" d="M464.5,303.5A6,6,0,1,1,452.5,303.5A6,6,0,1,1,464.5,303.5"></path><path id="kity_path_316" fill="none" stroke="gray"></path></g><path id="node_outline30" fill="none" stroke="none" d="M278.5,283.5h169a5,5,0,0,1,5,5v30a5,5,0,0,1,-5,5h-169a5,5,0,0,1,-5,-5v-30a5,5,0,0,1,5,-5z"></path><g id="node_text30" fill="black"><text id="kity_text_175" text-rendering="inherit" font-size="12" dy=".8em" y="286.7000000476837" x="283.5">打包上传到指定路径，</text><text id="kity_text_176" text-rendering="inherit" font-size="12" dy=".8em" y="304.7000000476837" x="283.5">再通过PM2开启进程守护即可</text></g></g><g id="minder_node32"><g id="node_expander32" style="cursor: pointer;"><path id="kity_path_324" fill="white" stroke="gray" d="M1431.5,1132.5A6,6,0,1,1,1419.5,1132.5A6,6,0,1,1,1431.5,1132.5"></path><path id="kity_path_325" fill="none" stroke="gray" d="M1421,1132.5L1430,1132.5"></path></g><path id="node_outline33" fill="rgb(238, 243, 246)" stroke="rgb(115, 161, 191)" d="M1310.5,1119.5h105a3,3,0,0,1,3,3v20a3,3,0,0,1,-3,3h-105a3,3,0,0,1,-3,-3v-20a3,3,0,0,1,3,-3z" stroke-width="1"></path><g id="node_text33" fill="black"><text id="kity_text_182" text-rendering="inherit" font-size="14" dy=".8em" y="1123.4000000953674" x="1327.5">阿里云配置</text></g></g><g id="minder_node33"><g id="node_expander31" style="cursor: pointer;" display="none"><path id="kity_path_321" fill="white" stroke="gray" d="M1463.5,1118.5A6,6,0,1,1,1451.5,1118.5A6,6,0,1,1,1463.5,1118.5"></path><path id="kity_path_322" fill="none" stroke="gray"></path></g><path id="node_outline32" fill="none" stroke="none" d="M1468.5,1107.5h131a5,5,0,0,1,5,5v12a5,5,0,0,1,-5,5h-131a5,5,0,0,1,-5,-5v-12a5,5,0,0,1,5,-5z"></path><g id="node_text32" fill="black"><text id="kity_text_180" text-rendering="inherit" font-size="12" dy=".8em" y="1110.7000000476837" x="1473.5">安全组配置，放开端口</text></g></g><g id="minder_node34"><g id="node_expander34" style="cursor: pointer;"><path id="kity_path_330" fill="white" stroke="gray" d="M679.5,218.5A6,6,0,1,1,667.5,218.5A6,6,0,1,1,679.5,218.5"></path><path id="kity_path_331" fill="none" stroke="gray" d="M669,218.5L678,218.5"></path></g><path id="node_outline35" fill="rgb(238, 243, 246)" stroke="rgb(115, 161, 191)" d="M544.5,205.5h119a3,3,0,0,1,3,3v20a3,3,0,0,1,-3,3h-119a3,3,0,0,1,-3,-3v-20a3,3,0,0,1,3,-3z" stroke-width="1"></path><g id="node_text35" fill="black"><text id="kity_text_186" text-rendering="inherit" font-size="14" dy=".8em" y="209.40000009536743" x="561.5">前端代码部署</text></g></g><g id="minder_node35"><g id="node_expander33" style="cursor: pointer;" display="none"><path id="kity_path_327" fill="white" stroke="gray" d="M513.5,218.5A6,6,0,1,1,501.5,218.5A6,6,0,1,1,513.5,218.5"></path><path id="kity_path_328" fill="none" stroke="gray"></path></g><path id="node_outline34" fill="none" stroke="none" d="M353.5,207.5h143a5,5,0,0,1,5,5v12a5,5,0,0,1,-5,5h-143a5,5,0,0,1,-5,-5v-12a5,5,0,0,1,5,-5z"></path><g id="node_text34" fill="black"><text id="kity_text_184" text-rendering="inherit" font-size="12" dy=".8em" y="210.70000004768372" x="358.5">打包上传到指定路径即可</text></g></g><g id="minder_node36"><g id="node_expander37" style="cursor: pointer;"><path id="kity_path_339" fill="white" stroke="gray" d="M693.5,637.5A6,6,0,1,1,681.5,637.5A6,6,0,1,1,693.5,637.5"></path><path id="kity_path_340" fill="none" stroke="gray" d="M683,637.5L692,637.5"></path></g><path id="node_outline38" fill="rgb(238, 243, 246)" stroke="rgb(115, 161, 191)" d="M529.5,624.5h148a3,3,0,0,1,3,3v20a3,3,0,0,1,-3,3h-148a3,3,0,0,1,-3,-3v-20a3,3,0,0,1,3,-3z" stroke-width="1"></path><g id="node_text38" fill="black"><text id="kity_text_192" text-rendering="inherit" font-size="14" dy=".8em" y="628.4000000953674" x="546.5">域名以及备案问题</text></g></g><g id="minder_node37"><g id="node_expander35" style="cursor: pointer;" display="none"><path id="kity_path_333" fill="white" stroke="gray" d="M498.5,611.5A6,6,0,1,1,486.5,611.5A6,6,0,1,1,498.5,611.5"></path><path id="kity_path_334" fill="none" stroke="gray"></path></g><path id="node_outline36" fill="none" stroke="none" d="M146.5,600.5h335a5,5,0,0,1,5,5v12a5,5,0,0,1,-5,5h-335a5,5,0,0,1,-5,-5v-12a5,5,0,0,1,5,-5z"></path><g id="node_text36" fill="black"><text id="kity_text_188" text-rendering="inherit" font-size="12" dy=".8em" y="603.7000000476837" x="151.5">需要备案的，直接在阿里云上或者腾讯云之类的网站购买即可</text></g></g><g id="minder_node38"><g id="node_expander36" style="cursor: pointer;" display="none"><path id="kity_path_336" fill="white" stroke="gray" d="M498.5,663.5A6,6,0,1,1,486.5,663.5A6,6,0,1,1,498.5,663.5"></path><path id="kity_path_337" fill="none" stroke="gray"></path></g><path id="node_outline37" fill="none" stroke="none" d="M25.5,652.5h456a5,5,0,0,1,5,5v12a5,5,0,0,1,-5,5h-456a5,5,0,0,1,-5,-5v-12a5,5,0,0,1,5,-5z"></path><g id="node_text37" fill="black"><text id="kity_text_190" text-rendering="inherit" font-size="12" dy=".8em" y="655.7000000476837" x="30.5">备案情况需要依照具体需求来看，我在阿里云上由于遇到了流程的问题，导致很麻烦</text></g></g></g></g></svg>